<?xml version="1.0" standalone="yes"?>
<svg xmlns="http://www.w3.org/2000/svg" width="64" height="64">
<path style="fill:#312d37; stroke:none;" d="M0 0L0 4L4 3L0 0z"/>
<path style="fill:#3d3947; stroke:none;" d="M2 0L4 3C0.749802 3.34507 0.0058558 5.26283 3 7L2 4L7 6L1 9L2 17L3 17L6 15L6 14L2 11L8 13L6 8L12 14L16 9L14 5L20 5L20 6L17 6L17 11L14 14L17 12L12 20L19 18L19 15L17 16L17 15L25 13L25 12L18 12L21 10L20 7L23 9L27 5L30 8L33 8L32 5L38 4L35 1L33 4L33 0L29 0L29 1L32 3C29.4901 3.50197 26.3552 2.57905 27 0L22 0L21 4L24 3L22 6L21 6L18 3L18 2L20 0L9 1L9 2L12 3L10 9L13 7L14 8L8 9L10 3C7.35107 3.52979 6.39305 3.42779 7 1L2 0z"/>
<path style="fill:#4f4b55; stroke:none;" d="M3 0L3 1L7 1L12 4L12 3L9 2L9 1L14 1L3 0M17.6667 0.333332L18.3333 0.666668L17.6667 0.333332M18 2L18 3L21 6L22 6L24 3L21 4L23 1L18 2M23.6667 0.333332L24.3333 0.666668L23.6667 0.333332M26 1L32 3L26 1M30 0L31 1L30 0M32 1L33 4L35 1L38 2L32 1z"/>
<path style="fill:#3d3947; stroke:none;" d="M37 0L44 4L43 0L37 0z"/>
<path style="fill:#4f4b55; stroke:none;" d="M40.6667 0.333332L41.3333 0.666668L40.6667 0.333332M42 1L47 5L47 0L42 1z"/>
<path style="fill:#3d3947; stroke:none;" d="M46 1L48 3L48 4L47 7L48 7L50 4L53 7L54 10L49 10L50 16L45 15L45 16C47.6489 15.4702 48.6069 15.5722 48 18L50 17L50 18L47 22L47 17L44 17L50 25L49 22L52 14L54 17L56 14L54 15L56 13L56 12L52 12L52 11L58 12L58 8L61 7L58 3L61 3L61 0L56 0L57 2L56 2L52 0L51 1L52 4L49 0L46 1z"/>
<path style="fill:#4f4b55; stroke:none;" d="M48 1L52 4L52 0L48 1M53 0L53 1L57 2L57 1L53 0M57.6667 0.333332L58.3333 0.666668L57.6667 0.333332z"/>
<path style="fill:#312d37; stroke:none;" d="M61 0L60 2L61 0z"/>
<path style="fill:#20151c; stroke:none;" d="M62 0C61.3172 4.09676 63.0665 16.0166 59 15L61 24L60 24L60 19L59 19L57 20L58 24L56 23L56 24L56 29L55 25L50 29L52 25L51 25L48 28L46 25L47 27L46 27L44 24C40.3227 24.8511 39.2806 23.9198 37 21L36 21L38 28L37 28L36 25L33 27L35 21L34 21L31 23L30 27L27 26L27 27L30 28L30 29L27 30L28 28L25 29L22 27L22 26L27 25L24 22L21 24L20 18L19 21L21 20L21 21L19 27L18 27L18 24L14 25L14 26L15 28L21 29L21 30L14 30L14 27L11 28L12 26L11 26L6 27L10 21L10 20L5 21L5 22L7 23L0 23L0 27L4 28L4 29L0 28L0 29L2 30L0 32L30 32L28 36L30 35L30 36L28 49L30 48L30 49L25 53L25 56L29 54L29 62L24 60L21 61L21 60L28 60L28 56L26 58L25 58L23 56L20 58L20 57L22 56L19 55C19 58.2325 17.0696 57.2105 16 55L18 56L18 55L14 51L13 57L15 56L9 59L12 57L9 54L8 58L4 54L8 52L8 51L3 53L4 56L0 64L64 64L64 59L55 60L55 59L59 60L53 57L55 50L51 51L51 54L49 53L43 61L42 61L39 59C38.4943 62.8699 33.6471 62.5303 32.3333 58.9722C30.9461 55.2152 33.3192 50.7021 34 47C30.7387 47 32.6697 44.8723 34 43L32 32L64 32L64 0L62 0z"/>
<path style="fill:#4f4b55; stroke:none;" d="M14 1L15 2L14 1M16 1L17 2L16 1M52 1L53 2L52 1z"/>
<path style="fill:#312d37; stroke:none;" d="M58 1L59 2L58 1z"/>
<path style="fill:#27231d; stroke:none;" d="M61.3333 1.66667L61.6667 2.33333L61.3333 1.66667z"/>
<path style="fill:#3d3947; stroke:none;" d="M0 2L1 3L0 2z"/>
<path style="fill:#4f4b55; stroke:none;" d="M24.6667 2.33333L25.3333 2.66667L24.6667 2.33333z"/>
<path style="fill:#312d37; stroke:none;" d="M37 2C37 4.19623 34.3426 6.95291 33 5L32 5L33 8L37 5L36 8L44 6L43 8L46 7L44 10L47 11L47 12L43 11L41 20L38 16L40 17L40 16L38 14L38 13L40 11L39 9L35 9L37 12L36 14L33 10L30 11L32 7L27 5C27 7.79543 25.5197 7.26523 23 7L24 10L28 8L28 11L30 11L29 13L35 15C35.1341 18.2214 35.7637 19.0692 39 19L42 24L45 21C44.0167 18.0501 43.5131 17.3783 46 18L45 15L50 15L49 10L54 10L53 7L50 4L48 7L44 4L46 5L46 4L37 2z"/>
<path style="fill:#4f4b55; stroke:none;" d="M41 2L42 3L41 2z"/>
<path style="fill:#312d37; stroke:none;" d="M54 2L52 4L56 9L54 2M59 2L58 3L61 7L58 8L58 12L53 11L57 14L60 11L59 14L60 14C61.1926 9.70226 61.9904 5.59214 59 2z"/>
<path style="fill:#4f4b55; stroke:none;" d="M4.66667 3.33333L5.33333 3.66667L4.66667 3.33333z"/>
<path style="fill:#312d37; stroke:none;" d="M14 3L15 4L14 3z"/>
<path style="fill:#3d3947; stroke:none;" d="M45 3L46 4L45 3z"/>
<path style="fill:#312d37; stroke:none;" d="M2 4L3 7L0 6L2 11L7 6L2 4M10 4L9 10L10 4z"/>
<path style="fill:#4f4b55; stroke:none;" d="M12.6667 4.33333L13.3333 4.66667L12.6667 4.33333z"/>
<path style="fill:#312d37; stroke:none;" d="M14 5L17 10L18 4L14 5M25.6667 4.33333L26.3333 4.66667L25.6667 4.33333z"/>
<path style="fill:#27231d; stroke:none;" d="M39 4L38 5L38 6L39 7L40 7L41 6L41 5L39 4M41 4L42 5L41 4M44 4L44 6L46 6L44 4z"/>
<path style="fill:#312d37; stroke:none;" d="M57 4L58 5L57 4z"/>
<path style="fill:#27231d; stroke:none;" d="M61.3333 4.66667L61.6667 5.33333L61.3333 4.66667z"/>
<path style="fill:#312d37; stroke:none;" d="M8 5L9 6L8 5z"/>
<path style="fill:#4f4b55; stroke:none;" d="M18.6667 5.33333L19.3333 5.66667L18.6667 5.33333z"/>
<path style="fill:#27231d; stroke:none;" d="M36 5L30 11L33 10L36 14L37 12L35 9L42 10L44 7L44 6L36 8L36 5z"/>
<path style="fill:#3d3947; stroke:none;" d="M55 5L56 8L58 5L55 5z"/>
<path style="fill:#4f4b55; stroke:none;" d="M56 5L57 6L56 5M58 5L57 8L60 6L58 5z"/>
<path style="fill:#312d37; stroke:none;" d="M25 6L26 7L25 6z"/>
<path style="fill:#27231d; stroke:none;" d="M33 6L34 7L33 6z"/>
<path style="fill:#4f4b55; stroke:none;" d="M12 7L10 10L11 11L14 8L12 7z"/>
<path style="fill:#312d37; stroke:none;" d="M20 7L21 10L18 12L24 13L20 7z"/>
<path style="fill:#3d3947; stroke:none;" d="M43 10L38 10L40 12L38 14L40 17L38 16L42 19L44 14L41 16L44 13L44 12L40 14L47 12L47 11L44 10L46 7L43 10M49 7L46 9L46 10L49 7z"/>
<path style="fill:#27231d; stroke:none;" d="M61 7L62 8L61 7z"/>
<path style="fill:#312d37; stroke:none;" d="M6 8L8 13L2 11L6 14L6 15L1 17L2 15L1 15L0 15L0 20L3 20L2 23L3 23L5 19L8 20L7 16L10 18L8 13L11 18L11 19L14 18L13 16L17 12L13 15L14 11L13 11L12 14L6 8z"/>
<path style="fill:#27231d; stroke:none;" d="M22 9L27 11L26 14L30 12L28 8L22 9M29 8L30 9L29 8z"/>
<path style="fill:#312d37; stroke:none;" d="M41 8L42 9L41 8z"/>
<path style="fill:#4f4b55; stroke:none;" d="M56 8L57 9L56 8z"/>
<path style="fill:#27231d; stroke:none;" d="M60.3333 8.66667L60.6667 9.33333L60.3333 8.66667z"/>
<path style="fill:#312d37; stroke:none;" d="M3 9L4 10L3 9z"/>
<path style="fill:#4f4b55; stroke:none;" d="M13 11L16 9L13 11z"/>
<path style="fill:#312d37; stroke:none;" d="M40 9L41 10L40 9M42 9L43 10L42 9M57 9L58 10L57 9z"/>
<path style="fill:#4f4b55; stroke:none;" d="M16 10L17 11L16 10z"/>
<path style="fill:#27231d; stroke:none;" d="M21 10L22 11L21 10z"/>
<path style="fill:#4f4b55; stroke:none;" d="M43 10L44 11L43 10z"/>
<path style="fill:#27231d; stroke:none;" d="M61 10L60 14L59 14L60 11L56 18L60 24L61 24L59 15C61.8474 14.6087 62.0925 12.5195 61 10z"/>
<path style="fill:#4f4b55; stroke:none;" d="M10 11L11 12L10 11z"/>
<path style="fill:#312d37; stroke:none;" d="M25 11L24 14C20.703 13.3041 18.668 12.8117 17 16L22 17L21 14L22 14L24 18L25 18L24 15L28 13L26 14L27 11L25 11z"/>
<path style="fill:#4f4b55; stroke:none;" d="M40 14L43 11L40 14M52 11L53 12L52 11z"/>
<path style="fill:#312d37; stroke:none;" d="M1 12L2 13L1 12M20 12L21 13L20 12z"/>
<path style="fill:#3d3947; stroke:none;" d="M32 12L33 13L32 12z"/>
<path style="fill:#27231d; stroke:none;" d="M37 12L38 13L37 12z"/>
<path style="fill:#3d3947; stroke:none;" d="M47 12L48 13L47 12z"/>
<path style="fill:#4f4b55; stroke:none;" d="M50 12L50 14L52 12L50 12z"/>
<path style="fill:#27231d; stroke:none;" d="M8 13L10 18L7 16L11 20L11 21L8 21L6 27L10 27L8 24L11 28L14 27L14 30L21 30L21 29L15 28L14 26L14 25C16.7675 24.3946 16.5766 23.7112 16 21L17 21L18 27L19 27L21 20L19 21L20 18L21 24L24 22L27 24L27 23L24 21L28 22L29 16L23 20L22 14L21 14L22 17L19 15L20 18L19 19L16 18L14 19L13 23L15 22L15 23L12 26L10 23L13 17L8 13M13.3333 13.6667L13.6667 14.3333L13.3333 13.6667z"/>
<path style="fill:#3d3947; stroke:none;" d="M24 15L24 20L30 14L28 24L29 24L32 22L32 16L35 17C32.1168 12.0695 28.6538 14.0703 24 15z"/>
<path style="fill:#4f4b55; stroke:none;" d="M42 13L41 16L42 13z"/>
<path style="fill:#312d37; stroke:none;" d="M54.3333 13.6667L54.6667 14.3333L54.3333 13.6667z"/>
<path style="fill:#27231d; stroke:none;" d="M55 13L56 14L55 13z"/>
<path style="fill:#312d37; stroke:none;" d="M2 14L3 15L2 14z"/>
<path style="fill:#27231d; stroke:none;" d="M10 14L11 15L10 14z"/>
<path style="fill:#3d3947; stroke:none;" d="M25 14L26 15L25 14z"/>
<path style="fill:#4f4b55; stroke:none;" d="M27 16L30 14L27 16z"/>
<path style="fill:#3d3947; stroke:none;" d="M36.6667 14.3333L37.3333 14.6667L36.6667 14.3333z"/>
<path style="fill:#312d37; stroke:none;" d="M52 14L49 22L49 23L49 24L52 23L52 26L53 26L53 22L56 23L59 20L56 18L57 15L54 17L52 14z"/>
<path style="fill:#27231d; stroke:none;" d="M13 17L16 15L13 17z"/>
<path style="fill:#4f4b55; stroke:none;" d="M30 15L31 16L30 15M46 15L49 17L46 15M49 15L50 16L49 15z"/>
<path style="fill:#27231d; stroke:none;" d="M1 16L2 17L1 16M5 16L6 17L5 16z"/>
<path style="fill:#312d37; stroke:none;" d="M15 16L16 17L15 16M18 16L19 17L18 16z"/>
<path style="fill:#27231d; stroke:none;" d="M24 16L25 17L24 16z"/>
<path style="fill:#4f4b55; stroke:none;" d="M26 16L27 17L26 16z"/>
<path style="fill:#312d37; stroke:none;" d="M29 16L30 17L29 16M32 16L33 17L32 16z"/>
<path style="fill:#27231d; stroke:none;" d="M33 16L32 24L33 24L34 21L35 21L33 27L36 25L37 28L38 28L36 21L39 19L33 16z"/>
<path style="fill:#312d37; stroke:none;" d="M58 16L59 17L58 16z"/>
<path style="fill:#27231d; stroke:none;" d="M0 17L1 18L0 17z"/>
<path style="fill:#312d37; stroke:none;" d="M17 17L18 18L17 17M19 17L20 18L19 17M27 17L28 18L27 17z"/>
<path style="fill:#3d3947; stroke:none;" d="M35 17L38 19L35 17M42 17L43 18L42 17z"/>
<path style="fill:#312d37; stroke:none;" d="M49 17L47 22L49 17z"/>
<path style="fill:#27231d; stroke:none;" d="M52 17L55 22L56 19L52 17M4 18L5 19L4 18z"/>
<path style="fill:#312d37; stroke:none;" d="M15.3333 18.6667L15.6667 19.3333L15.3333 18.6667M18 18L19 19L18 18M22 18L23 19L22 18M26 18L27 19L26 18M30 18L31 19L30 18z"/>
<path style="fill:#27231d; stroke:none;" d="M1 19L2 20L1 19M5 19L3 23C4.59241 23.3013 8.11259 23.3533 5 22L5 21L8 21L5 19z"/>
<path style="fill:#312d37; stroke:none;" d="M13 19L10 23L12 26L15 22L13 23L13 22L14 20L13 19M17 19L18 20L17 19M23 19L24 20L23 19M29 19L30 20L29 19M31.6667 19.3333L32.3333 19.6667L31.6667 19.3333z"/>
<path style="fill:#27231d; stroke:none;" d="M40 19L41 20L40 19M57 19L58 20L57 19M0 20L3 24L3 20L0 20z"/>
<path style="fill:#312d37; stroke:none;" d="M10 20L11 21L10 20z"/>
<path style="fill:#3d3947; stroke:none;" d="M25 20L26 21L25 20z"/>
<path style="fill:#312d37; stroke:none;" d="M27 20L28 21L27 20M33 20L34 21L33 20z"/>
<path style="fill:#27231d; stroke:none;" d="M39 22L43 20L39 22M58 20L59 21L58 20z"/>
<path style="fill:#312d37; stroke:none;" d="M16 21L18 24L16 21M18 21L19 22L18 21M24 21L24 22L28 26L32 22L29 24L28 24L24 21M28 21L29 22L28 21M32 21L33 22L32 21z"/>
<path style="fill:#27231d; stroke:none;" d="M44 21L42 24L38 22C39.7144 24.9529 40.8094 25.0928 44 24L47 27L46 25L48 28L53 24L50 26L45 25L44 24L44 21M56 21L58 24L56 21z"/>
<path style="fill:#312d37; stroke:none;" d="M45 22L44 23L44 24L45 25L46 25L47 24L47 23L45 22z"/>
<path style="fill:#27231d; stroke:none;" d="M53 22L56 29C57.6765 25.6481 55.9566 23.84 53 22M30 23L29 27L30 27L30 23M0 24L1 25L0 24z"/>
<path style="fill:#312d37; stroke:none;" d="M8 24L11 26L8 24z"/>
<path style="fill:#27231d; stroke:none;" d="M24 24L25 25L24 24z"/>
<path style="fill:#312d37; stroke:none;" d="M48 24L49 25L48 24z"/>
<path style="fill:#27231d; stroke:none;" d="M59 24L61 27L59 24M1 25L2 26L1 25M22 26L22 27L25 29L28 28L27 30L30 29L30 28L28 25L22 26M31 25L32 26L31 25z"/>
<path style="fill:#312d37; stroke:none;" d="M49 25L50 26L49 25z"/>
<path style="fill:#27231d; stroke:none;" d="M53 25L50 29L53 25M4 26L5 27L4 26M41 28L44 28L43 26L41 28M0 27L0 28L4 29L4 28L0 27M8 27L7 29L7 30L11 29L11 28L8 27M20 27L21 28L20 27M35.3333 27.6667L35.6667 28.3333L35.3333 27.6667M58 27L59 28L58 27M53 28L55 30L53 28M0.666667 29.3333L1.33333 29.6667L0.666667 29.3333M30 29L31 30L30 29z"/>
<path style="fill:#4f4b55; stroke:none;" d="M0 34L3 33L6 36L6 35L4 35L4 34L8 33L8 37L11 38L14 34L13 36L18 36L18 35L18 32L12 34C8.53455 32.4742 2.55335 30.3473 0 34z"/>
<path style="fill:#3d3947; stroke:none;" d="M3 32L4 33L3 32M9 32L12 34L9 32M15 32L16 33L15 32M18 32L16 34L16 42L14 38L17 36L13 36L14 34L13 34L11 38L9 36L7 39L8 41L9 42L12 42L11 40L12 40L13 44L18 46L22 46L26 41L25 43L26 43L28 39L25 40L24 35L26 36L26 35L21 32L23 35L19 35L18 32z"/>
<path style="fill:#4f4b55; stroke:none;" d="M19 32L19 35L23 35L19 32M22 32L22 33L26 33L22 32z"/>
<path style="fill:#3d3947; stroke:none;" d="M26.6667 32.3333L27.3333 32.6667L26.6667 32.3333z"/>
<path style="fill:#312d37; stroke:none;" d="M28 32L25 33L26 36L24 35L24 36L25 40L28 39L27 44L28 44L27 34L29 35L29 34L29 33L28 32z"/>
<path style="fill:#27231d; stroke:none;" d="M29 32L30 33L29 32M32 32L33 39L35 36L38 35L41 33L32 32z"/>
<path style="fill:#312d37; stroke:none;" d="M38 32L39 33L38 32M41 32L38 35C34.8268 31.9114 32.0042 36.0205 35 36L32 38L34 48L37 45L35 46L35 45L38 44L38 42L40 43L39 40L36 42L38 36L41 36L40 38L42 38L42 39L41 40L46 37L45 35L40 35L41 32z"/>
<path style="fill:#3d3947; stroke:none;" d="M42 32L40 35L44 34L46 37L41 40L41 36L38 36L38 37L36 42L39 40L40 43L38 44L35 46L37 45L34 50L37 53L34 51C34.9787 56.2195 42.5854 56.7239 40 53L45 51L45 48L42 49L43 45L50 46L51 46L52 39L53 39L55 41L54 39L55 39L59 41L59 38L64 40L63 32L62 32L60 36L60 32L59 32L58 35L52 32L52 33L53 35L54 36L56 35L55 38L52 34L48 33L49 36L42 32z"/>
<path style="fill:#4f4b55; stroke:none;" d="M43 32L49 36L48 33L52 34C52.3494 37.0954 54.2914 37.7977 56 35L54 33L43 32z"/>
<path style="fill:#3d3947; stroke:none;" d="M45 32L46 33L45 32z"/>
<path style="fill:#4f4b55; stroke:none;" d="M54 32L54 33L59 32L54 32z"/>
<path style="fill:#3d3947; stroke:none;" d="M56 32L57 33L56 32z"/>
<path style="fill:#4f4b55; stroke:none;" d="M59 33L60 36L63 35L63 33L62 32L59 33M63 32L64 33L63 32z"/>
<path style="fill:#3d3947; stroke:none;" d="M1 33L0 36L6 38L3 33L1 33M4 34L4 35L9 36L8 33L4 34z"/>
<path style="fill:#27231d; stroke:none;" d="M28 33L29 34L28 33M27.3333 34.6667L27.6667 35.3333L27.3333 34.6667z"/>
<path style="fill:#3d3947; stroke:none;" d="M36 34L35 35L35 36L36 37L37 37L38 36L38 35L36 34z"/>
<path style="fill:#4f4b55; stroke:none;" d="M43 34L44 35L43 34z"/>
<path style="fill:#27231d; stroke:none;" d="M29.3333 35.6667L29.6667 36.3333L29.3333 35.6667z"/>
<path style="fill:#4f4b55; stroke:none;" d="M46 35L47 36L46 35z"/>
<path style="fill:#312d37; stroke:none;" d="M0 36L3 45L7 44L7 45L3 49L0 47L2 56L1 53L6 52L7 51L9 48L10 50L6 53L5 55L5 56L11 53L11 56C14.5981 52.0653 10.6668 48.3073 9 44L14 42L14 41L11 40L12 42L9 42L8 41L7 39C7.5693 36.5867 5.91133 35.4107 6 38L0 36M17 36L14 38L16 42L17 36M20 36L22 42L24 38L20 36z"/>
<path style="fill:#27231d; stroke:none;" d="M26.3333 36.6667L26.6667 37.3333L26.3333 36.6667z"/>
<path style="fill:#4f4b55; stroke:none;" d="M49 36L50 37L49 36z"/>
<path style="fill:#27231d; stroke:none;" d="M2 37L3 38L2 37M28.3333 37.6667L28.6667 38.3333L28.3333 37.6667z"/>
<path style="fill:#3d3947; stroke:none;" d="M43 37L44 38L43 37z"/>
<path style="fill:#27231d; stroke:none;" d="M0 38L0 44L4 44L0 38z"/>
<path style="fill:#3d3947; stroke:none;" d="M36 38L37 39L36 38z"/>
<path style="fill:#4f4b55; stroke:none;" d="M48 38L45 42L40 40L42 45L45 43L45 46L49 43L46 43L49 41L48 38z"/>
<path style="fill:#312d37; stroke:none;" d="M59 38L56 42L60 44L61 49L58 48L56 53L58 44L56 49L55 49L55 44L52 45L52 41L54 42L53 39C50.3976 41.7409 50.8312 43.5009 52 47L50 46L50 49L49 49L49 46L48 46L47 48L53 50L52 47L61 60L60 57L63 59L64 51L59 54L59 55L62 54L60 57L59 57L56 55L64 48L63 46L60 46L64 44L64 40L59 38M62 38L63 39L62 38M0 39L1 40L0 39z"/>
<path style="fill:#27231d; stroke:none;" d="M4 39L5 43L8 42L4 39z"/>
<path style="fill:#4f4b55; stroke:none;" d="M19 39L16 43L21 42L19 39z"/>
<path style="fill:#3d3947; stroke:none;" d="M20 39L19 41L21 41L20 39z"/>
<path style="fill:#4f4b55; stroke:none;" d="M54 39L54 43L57 40L54 39z"/>
<path style="fill:#27231d; stroke:none;" d="M59 39L61 42L62 41L59 39z"/>
<path style="fill:#312d37; stroke:none;" d="M26 40L27 41L26 40z"/>
<path style="fill:#27231d; stroke:none;" d="M29 40L30 41L29 40M32.3333 40.6667L32.6667 41.3333L32.3333 40.6667z"/>
<path style="fill:#3d3947; stroke:none;" d="M46 40L47 41L46 40z"/>
<path style="fill:#312d37; stroke:none;" d="M24 41L23 46L21 44L18 44L19 47L15 44L16 46L15 46L12 44L12 46L11 46L12 49L15 48L14 50L15 50L16 47L21 46L21 50L20 51L17 51L17 52L20 52L19 54L20 55L24 55L22 53L22 52L26 52L27 48L23 49L23 46L28 46L28 45L25 46L26 41L24 41z"/>
<path style="fill:#3d3947; stroke:none;" d="M52 41L55 44L54 46L55 46L58 44L56 53L58 48L61 49L60 44L52 41z"/>
<path style="fill:#27231d; stroke:none;" d="M62 41L64 43L64 41L62 41z"/>
<path style="fill:#312d37; stroke:none;" d="M0 42L1 43L0 42z"/>
<path style="fill:#27231d; stroke:none;" d="M28 42L25 46L28 45L28 46L23 46L23 49L27 48L26 52L24 50L22 52L22 53L24 55L21 54L20 57L20 58L23 56L25 58L26 58L28 56L28 60L21 60L21 61L24 60L29 62L29 54L25 56L25 53L30 48L28 49L28 48L28 42z"/>
<path style="fill:#3d3947; stroke:none;" d="M59 42L60 43L59 42z"/>
<path style="fill:#312d37; stroke:none;" d="M1 43L1 46L2 46L1 43z"/>
<path style="fill:#3d3947; stroke:none;" d="M7.66667 43.3333L8.33333 43.6667L7.66667 43.3333z"/>
<path style="fill:#27231d; stroke:none;" d="M9 44L9 47L14 47L13 43L9 44z"/>
<path style="fill:#312d37; stroke:none;" d="M14 43L15 44L14 43z"/>
<path style="fill:#3d3947; stroke:none;" d="M62 43L60 46L63 46L62 48L62 43M1 44L2 46L0 45L0 46L3 49L7 45L7 44L1 44z"/>
<path style="fill:#27231d; stroke:none;" d="M24 44L25 45L24 44M32 44L32 48L33 48L32 44z"/>
<path style="fill:#312d37; stroke:none;" d="M49 44L50 45L49 44z"/>
<path style="fill:#27231d; stroke:none;" d="M52 44L53 45L52 44M14.6667 45.3333L15.3333 45.6667L14.6667 45.3333M18.3333 45.6667L18.6667 46.3333L18.3333 45.6667M22 45L23 46L22 45z"/>
<path style="fill:#312d37; stroke:none;" d="M40.6667 45.3333L41.3333 45.6667L40.6667 45.3333M43 45L42 49L45 48L47 52L43 45z"/>
<path style="fill:#27231d; stroke:none;" d="M49 45L49 49L50 49L49 45M51.3333 45.6667L51.6667 46.3333L51.3333 45.6667z"/>
<path style="fill:#3d3947; stroke:none;" d="M6.66667 46.3333L7.33333 46.6667L6.66667 46.3333z"/>
<path style="fill:#27231d; stroke:none;" d="M20 46L16 47L14 50L15 48L14 48L11 49L18 56L16 55L16 56L20 57L20 52L19 51L17 52L17 51L20 51L21 50L20 46z"/>
<path style="fill:#4f4b55; stroke:none;" d="M37 46L36 50L40 50L39 46L37 46z"/>
<path style="fill:#27231d; stroke:none;" d="M47 46L48 47L47 46M54 46L56 49L54 46M4 47L1 49L2 52L3 52L4 47z"/>
<path style="fill:#3d3947; stroke:none;" d="M9 47L12 49L9 47M12 47L13 48L12 47z"/>
<path style="fill:#27231d; stroke:none;" d="M22 47L23 48L22 47z"/>
<path style="fill:#3d3947; stroke:none;" d="M37 47L38 48L37 47z"/>
<path style="fill:#312d37; stroke:none;" d="M41 47L42 48L41 47z"/>
<path style="fill:#27231d; stroke:none;" d="M46 47L47 52L46 50L45 50L42 53L42 54L45 53L46 53L46 57L51 54L51 51L52 51L55 50L55 49L52 47L53 50L46 47M6 49L10 51L9 48L6 49M33 48L34 49L33 48M25 49L26 50L25 49z"/>
<path style="fill:#3d3947; stroke:none;" d="M61 49L62 50L61 49M63 49L62 51L64 51L63 49z"/>
<path style="fill:#27231d; stroke:none;" d="M21.6667 50.3333L22.3333 50.6667L21.6667 50.3333M33 50L32 54L33 54L33 50z"/>
<path style="fill:#4f4b55; stroke:none;" d="M34 50L37 52L34 50z"/>
<path style="fill:#312d37; stroke:none;" d="M40 50L42 52L42 50L40 50z"/>
<path style="fill:#27231d; stroke:none;" d="M55 50L56 51L55 50z"/>
<path style="fill:#3d3947; stroke:none;" d="M0.333333 51.6667L0.666667 52.3333L0.333333 51.6667z"/>
<path style="fill:#27231d; stroke:none;" d="M4 51L3 53L5 53L4 51M6 51L7 52L6 51M11 51L12 52L11 51z"/>
<path style="fill:#312d37; stroke:none;" d="M43 54L45 51L43 54z"/>
<path style="fill:#27231d; stroke:none;" d="M56 55L59 57L60 57L62 54L59 55L59 54L63 52L56 55M7 52L8 53L7 52M28 52L29 53L28 52z"/>
<path style="fill:#312d37; stroke:none;" d="M33 52L33 57L36 56L37 59L33 59L33 60L39 61L44 56L42 60L43 60L44 57L47 59L48 56L46 53L45 53L42 54L41 57L35 52L33 52M36 52L37 53L36 52M37 54L40 55L40 52L37 54z"/>
<path style="fill:#27231d; stroke:none;" d="M54 52L55 53L54 52z"/>
<path style="fill:#3d3947; stroke:none;" d="M63.3333 52.6667L63.6667 53.3333L63.3333 52.6667z"/>
<path style="fill:#27231d; stroke:none;" d="M1 53L0 58L4 56L1 53M4 55L7 55L6 53L4 55M9 53L11 56L9 53M12 53L13 54L12 53M14 53L15 54L14 53z"/>
<path style="fill:#312d37; stroke:none;" d="M35 53L36 54L35 53M40.6667 53.3333L41.3333 53.6667L40.6667 53.3333z"/>
<path style="fill:#27231d; stroke:none;" d="M53 53L54 54L53 53M8 54L9 55L8 54M13 54L14 55L13 54M54 54L53 57C55.1579 56.0224 55.5007 55.8117 54 54M7 55L8 56L7 55M12 55L9 59L15 56L12 55M32 55C32.1744 60.3101 33.6899 61.8256 39 62L39 61L33 60L33 59L37 59L36 56L32 55M49 55L51 57L49 55M52 55L53 56L52 55M62 55L63 56L62 55M6 56L6 58L8 58L6 56M9 56L10 57L9 56M40 56L41 57L40 56M39 58L39 59L42 60L44 56L39 58M56 56L58 58L58 56L56 56M63 56L64 57L63 56M1 60L6 59L1 60M37 57L38 58L37 57M44 57L44 59L46 59L44 57M48 57L49 58L48 57M60 57L62 60L60 57M15 58L16 59L15 58M19 58L20 59L19 58M47 58L48 59L47 58M54 58L55 59L54 58M58 58L59 59L58 58M63 58L64 59L63 58M13 59L7 60L7 61L15 60L13 59M38 59L39 60L38 59M43 59L44 60L43 59M46 59L47 60L46 59M52 59L55 61L52 59M55 59L55 60L61 61L61 60L55 59M39 60L40 61L39 60M42 60L43 61L42 60M44 60L45 61L44 60M62 60L63 61L62 60M0 61L1 62L0 61M41 61L42 62L41 61z"/>
</svg>
