<?xml version="1.0" standalone="yes"?>
<svg xmlns="http://www.w3.org/2000/svg" width="64" height="64">
<path style="fill:#595959; stroke:none;" d="M0 0L0 22L1 22L4 18L4 15L8 15L4 11L8 10L12 11L12 12L9 13L9 16L14 11L12 8L16 8L16 9L14 10L19 10L11 17L17 18L15 15L18 14L21 17L21 14L26 16L26 12L29 12L28 14L30 14L30 15L29 16L37 14L37 15L34 17L41 17L39 15L41 13L42 13L43 17L48 16L48 13L52 12L46 9L46 8L58 12L55 4L58 9L61 0C42.8386 2.29524 17.8806 4.257 0 0z"/>
<path style="fill:#6f6f6f; stroke:none;" d="M1 0L1 1L58 1L40 0L1 0z"/>
<path style="fill:#4b4d4f; stroke:none;" d="M61 0L60 3L61 0z"/>
<path style="fill:#3d3c3c; stroke:none;" d="M62 0L56 14L51 10L51 11L54 12L46 16L43 19L43 16L32 18L34 15L27 14L21 15L24 19C20.4768 17.2478 18.2327 16.3282 16 20L14 17L11 18L14 22L11 23L7 17L7 20L4 18L2 19L3 22L3 26L0 30L8 29L6 27L11 28L9 29L9 30L23 26L22 28L23 28C25.4643 27.5071 27.6478 27.4088 27 30L30 27L39 30L36 26L40 29L47 24L50 25L48 28L52 28L52 25L54 26L55 25L57 22L59 26L59 24L62 26L62 0z"/>
<path style="fill:#2a2a2a; stroke:none;" d="M63 0L62 26L59 24L59 26L57 22L55 25L54 26L52 25L51 26L52 28L48 28L50 25L47 24L40 29L36 26L39 30L30 27L27 30L22 28L23 26L22 26L9 30L9 29L11 28L6 27L8 29L0 32L30 32L30 55L26 55L28 58L19 58L21 61L20 62L18 58L14 59L16 56L13 56L12 55L13 53L10 54L13 58L8 58L9 55L6 55L4 60L5 58L1 60L2 62L0 64L64 64L64 60L60 59L60 62L51 58L54 62L43 62L43 59L32 62L32 32L64 32L63 0z"/>
<path style="fill:#6f6f6f; stroke:none;" d="M0 1L0 18L1 18L0 1z"/>
<path style="fill:#4b4d4f; stroke:none;" d="M59.3333 3.66667L59.6667 4.33333L59.3333 3.66667M32 4L36 8L36 5L32 4M53 4L54 5L53 4M55 4L58 11L55 4M38 5L39 6L38 5M60 5L59 9L60 9L60 5z"/>
<path style="fill:#3d3c3c; stroke:none;" d="M35.6667 6.33333L36.3333 6.66667L35.6667 6.33333z"/>
<path style="fill:#4b4d4f; stroke:none;" d="M37 6L38 7L37 6M51 7L54 9L51 7M12 8L14 11L9 16L9 13L12 12L12 11L8 10L4 11L8 15L3 16L7 20L7 17L11 23L14 22L11 18L14 17L14 16L11 17L19 10L16 9L12 8M27 9L31 12L30 10L33 11L27 9M46 8L46 9L52 9L46 8M10 9L11 10L10 9M16 9L17 10L16 9M54 9L55 10L54 9M3 10L4 11L3 10M53 10L54 11L53 10M55 10L56 11L55 10M18 13L18 14L24 12L18 13M51 11L54 13L51 11M56 11L57 12L56 11M59 11L60 12L59 11M26 12L27 14L28 14L29 12L26 12M37 13L37 14L41 13L37 13M44 12L46 15L44 12M49 12L50 13L49 12M56 14L59 12L56 14M41 13L39 16L44 16L41 13M48 13L47 17L48 13M50.6667 13.3333L51.3333 13.6667L50.6667 13.3333M5 14L6 15L5 14M15 15L15 16L19 17L19 16L18 14L15 15M21 14L22 15L21 14M25.6667 14.3333L26.3333 14.6667L25.6667 14.3333M28 14L28 16L30 14L28 14M34 16L37 14L34 16M51 15L52 18L53 18L56 15L51 15M20 15L21 16L20 15M22 15L23 16L22 15M24.3333 15.6667L24.6667 16.3333L24.3333 15.6667M30.3333 15.6667L30.6667 16.3333L30.3333 15.6667M32 15L33 16L32 15M46 15L47 16L46 15M21 16L24 19L21 16M26 16L25 19L30 18L26 16M32 17L36 19L34 16L32 17M38 16L39 17L38 16M43 19L47 17L43 19M2 17L3 22L2 19L4 20L2 17M13 18L16 20L15 17L13 18M36 17L37 18L36 17M39 17L40 18L39 17z"/>
<path style="fill:#2a2a2a; stroke:none;" d="M57 17L53 19L53 20L57 17z"/>
<path style="fill:#4b4d4f; stroke:none;" d="M31 18L32 19L31 18M40 18L43 20L40 18M33 19L33 22L30 23L30 24L39 21L33 21L33 19M16 20L16 21L19 22L16 20z"/>
<path style="fill:#3d3c3c; stroke:none;" d="M36 20L37 21L36 20z"/>
<path style="fill:#2a2a2a; stroke:none;" d="M54 21L53 23L54 21z"/>
<path style="fill:#4b4d4f; stroke:none;" d="M0 22L2 28L3 26L0 22M2 23L3 24L2 23M10 23L11 24L10 23z"/>
<path style="fill:#2a2a2a; stroke:none;" d="M58 23L59 24L58 23M19.6667 25.3333L20.3333 25.6667L19.6667 25.3333M29 26L30 27L29 26M42 26L43 27L42 26z"/>
<path style="fill:#3d3c3c; stroke:none;" d="M55 26L54 28L55 26z"/>
<path style="fill:#2a2a2a; stroke:none;" d="M16 28L17 29L16 28M36 28L37 29L36 28z"/>
<path style="fill:#6f6f6f; stroke:none;" d="M0 32L0 33L10 33L0 32z"/>
<path style="fill:#595959; stroke:none;" d="M0 33L0 49L4 49L7 45L6 47L7 47L10 44L11 44L14 47L15 42L20 46L17 45L20 50L23 49L24 46L24 45L22 43L25 42L25 41L20 43L23 38L26 38L24 35L28 37L30 32L0 33z"/>
<path style="fill:#6f6f6f; stroke:none;" d="M14 32L14 33L29 33L14 32z"/>
<path style="fill:#595959; stroke:none;" d="M32 32L32 58L33 58L36 55L34 51L37 51L37 50L35 51L35 50L35 45L40 46L40 45L37 46L35 42L45 46L43 49L46 52L50 50L50 49L47 48L49 45L46 46L47 43L49 44L53 40L54 42L52 46L56 47L56 48L54 50L55 51L56 51L56 48L60 49L57 51L57 52L62 51L64 49L59 43L64 44L64 33L32 32z"/>
<path style="fill:#6f6f6f; stroke:none;" d="M33 32L33 33L64 33L33 32z"/>
<path style="fill:#4b4d4f; stroke:none;" d="M29 33L28 37L24 35L26 38L23 38L20 43L25 41L25 42L22 43L24 45L24 46L20 50L17 45L20 46L15 42L13 45L13 46L18 47L13 50L19 50L19 53L24 52L25 50L27 42L29 43L27 41L27 40L29 33z"/>
<path style="fill:#6f6f6f; stroke:none;" d="M32 33L32 50L33 50L32 33z"/>
<path style="fill:#4b4d4f; stroke:none;" d="M5 39L4 41L4 42L9 41L9 42L6 44L12 44L10 41L13 42C12.7479 36.6576 8.94565 38.8219 5 39M22 37L23 38L22 37z"/>
<path style="fill:#3d3c3c; stroke:none;" d="M29 37L27 40L27 41L29 43L27 42L27 43L25 50L23 50L23 51L24 52L19 53L19 50L13 50L18 47L14 46L15 48L14 48L10 45L9 45L5 48L5 49L8 49L4 49L3 49L0 50L2 62L5 58L4 60L5 60L6 55L9 55L8 58L13 58L10 54L13 53L13 56L15 55L16 56L14 59L18 58L20 62L21 61L19 58L28 58L26 55L30 55L29 37z"/>
<path style="fill:#4b4d4f; stroke:none;" d="M50 37L50 38L55 40L55 39L50 37z"/>
<path style="fill:#595959; stroke:none;" d="M11 38L10 40L11 38z"/>
<path style="fill:#3d3c3c; stroke:none;" d="M26 39L27 40L26 39z"/>
<path style="fill:#4b4d4f; stroke:none;" d="M50 41L54 43L53 40L50 41M17 41L19 43L17 41M39 41L40 42L39 41M47 41L49 43L47 41M35 42L37 46L40 45L40 46L35 45L35 51L37 50L37 51L34 51L36 56L35 56L34 54L33 57C36.4821 56.085 37.7353 54.5957 37 51L40 52L41 51L40 48L43 50L45 46L35 42z"/>
<path style="fill:#3d3c3c; stroke:none;" d="M50 42L50 47L52 46L52 47L49 53L44 55L43 54L46 52L40 48L41 51L40 52L37 51C37.309 53.8607 37.0587 55.5489 34 56L33 57L32 62L43 59L43 62L54 62L51 58L60 62L60 59L64 60L64 52L63 51C61.2314 51.2853 58.0747 51.7281 61 53L61 54L55 55L57 53L54 50L52 51L52 50L54 48L54 47L50 42z"/>
<path style="fill:#4b4d4f; stroke:none;" d="M61 42L62 43L61 42M46 46L49 45L47 48L51 50L52 46L50 47L51 44C48.1807 43.1755 47.1136 43.2086 46 46M59 43L64 47L64 44L59 43M2 46L5 44L2 46M10 44L13 47L10 44M54 44L55 45L54 44M5 51L8 49L5 49L7 45C4.04714 46.7144 3.90721 47.8094 5 51M22 45L21 47L22 45z"/>
<path style="fill:#3d3c3c; stroke:none;" d="M25 45L26 46L25 45z"/>
<path style="fill:#4b4d4f; stroke:none;" d="M53 45L52 51L56 48L56 47L53 45M56 45L56 46L60 46L60 45L56 45z"/>
<path style="fill:#595959; stroke:none;" d="M63 45L64 46L63 45z"/>
<path style="fill:#4b4d4f; stroke:none;" d="M0 46L0 48L2 46L0 46M9 46L11 48L9 46M13.6667 47.3333L14.3333 47.6667L13.6667 47.3333z"/>
<path style="fill:#3d3c3c; stroke:none;" d="M39 47L40 48L39 47z"/>
<path style="fill:#4b4d4f; stroke:none;" d="M0 50L1 51L3 48L0 50M45 48L46 49L45 48M56 48L56 49L58 50L53 51L57 53L55 55L61 54L61 53L60 51L57 52L57 51L60 49L56 48M60 48L61 49L60 48M62 48L61 49L64 52L62 48M44 49L45 50L44 49z"/>
<path style="fill:#3d3c3c; stroke:none;" d="M57 49L58 50L57 49z"/>
<path style="fill:#4b4d4f; stroke:none;" d="M45.6667 50.3333L46.3333 50.6667L45.6667 50.3333M47 52L50 50L47 52z"/>
<path style="fill:#3d3c3c; stroke:none;" d="M56 50L57 51L56 50z"/>
<path style="fill:#4b4d4f; stroke:none;" d="M0 51L1 52L0 51M4 51L5 52L4 51z"/>
<path style="fill:#3d3c3c; stroke:none;" d="M19 51L20 52L19 51z"/>
<path style="fill:#4b4d4f; stroke:none;" d="M61 51L62 52L61 51z"/>
<path style="fill:#3d3c3c; stroke:none;" d="M36 52L37 53L36 52z"/>
<path style="fill:#4b4d4f; stroke:none;" d="M43 54L44 55L47 52L43 54M50 52L51 53L50 52M62 52L63 53L62 52M63 53L64 54L63 53z"/>
<path style="fill:#2a2a2a; stroke:none;" d="M21 55L23 57L21 55z"/>
<path style="fill:#3d3c3c; stroke:none;" d="M28 55L29 56L28 55M35 55L36 56L35 55z"/>
<path style="fill:#4b4d4f; stroke:none;" d="M43 55L44 56L43 55z"/>
<path style="fill:#3d3c3c; stroke:none;" d="M14 56L15 57L14 56z"/>
<path style="fill:#4b4d4f; stroke:none;" d="M57 56L58 57L57 56z"/>
<path style="fill:#3d3c3c; stroke:none;" d="M10 58L11 59L10 58M23 59L23 60L26 60L23 59z"/>
<path style="fill:#4b4d4f; stroke:none;" d="M32 58L32 60L34 58L32 58z"/>
<path style="fill:#3d3c3c; stroke:none;" d="M13 59L14 60L13 59M16 60L17 61L16 60M61 60L62 61L61 60M41 61L42 62L41 61M48 61L49 62L48 61M63 61L64 62L63 61z"/>
</svg>
