<?xml version="1.0" standalone="yes"?>
<svg xmlns="http://www.w3.org/2000/svg" width="64" height="64">
<path style="fill:#807f80; stroke:none;" d="M0 0L0 29L7 22L8 22L8 27L9 27L8 18L9 18C12.4531 29.6257 20.0441 28.2754 30 29L30 28L26 26C37.6041 19.3942 41.5077 14.7018 54 22L48 25L48 26C50.5493 27.0256 57.3168 31.075 58 27L61 28L62 8L61 8L59 15L58 15C56.7417 9.56336 49.3416 -5.79848 45 6L44 6L44 3C41.3678 3 40.1095 0.146358 37 1.16667C32.303 2.70786 28.4023 15.5595 27 20L22 9L17 17L16 13L8.66667 2.16667L0 0z"/>
<path style="fill:#9d999d; stroke:none;" d="M1 0L1 1L8 1L1 0z"/>
<path style="fill:#6e824c; stroke:none;" d="M8 0L14 11L16 10L18 14L22 9L27 20L36 0L8 0z"/>
<path style="fill:#9d999d; stroke:none;" d="M36 0L36 1L40 1L36 0z"/>
<path style="fill:#6e824c; stroke:none;" d="M40 0L44 6L45 6L48 0L40 0z"/>
<path style="fill:#9d999d; stroke:none;" d="M48.6667 0.333332L49.3333 0.666668L48.6667 0.333332z"/>
<path style="fill:#6e824c; stroke:none;" d="M50 0L59 13L60 13C59.4613 9.76797 58.1017 8.27542 61 9L60 5L64 0L50 0z"/>
<path style="fill:#9d999d; stroke:none;" d="M0 2L0 5L1 5L0 2z"/>
<path style="fill:#59693f; stroke:none;" d="M63 2L60 5L61 8L63 2z"/>
<path style="fill:#636263; stroke:none;" d="M63 4L61 28L58 27C58 31.3369 49.9328 26.2315 47 26L47 27L49 28L45 29L45 30L64 32L63 4z"/>
<path style="fill:#59693f; stroke:none;" d="M11 5L12 6L11 5z"/>
<path style="fill:#6e824c; stroke:none;" d="M41 5L41 14C43.3554 10.7664 43.5178 8.15644 41 5z"/>
<path style="fill:#9d999d; stroke:none;" d="M0 6L0 22L1 22L0 6z"/>
<path style="fill:#59693f; stroke:none;" d="M12 6L12 9L13 9L12 6z"/>
<path style="fill:#6e824c; stroke:none;" d="M49 6L49 12L52 8L49 10L49 6z"/>
<path style="fill:#59693f; stroke:none;" d="M53 6L52 10L53 10L53 6M50 7L49 10L50 7M56.3333 8.66667L56.6667 9.33333L56.3333 8.66667M59 8L59 11L61 10L61 9L59 8M13 9L16 13L17 17L18 17L16 10L13 9M51 10L50 13L51 10M57 10L58 14L59 14L57 10z"/>
<path style="fill:#6e824c; stroke:none;" d="M51 12L52 15L51 12M57 12L58 13L57 12z"/>
<path style="fill:#59693f; stroke:none;" d="M18 13L19 14L18 13z"/>
<path style="fill:#6e824c; stroke:none;" d="M58 14L59 15L58 14M34 24L30 23L30 24L32 25L28 25L34 30L37 26L41 28L43 24C45.1316 25.7004 47.0176 26.0735 47 23L52 20C43.9306 20.2882 38.8571 10.8164 34 24M8 18L11 28L18 30L18 29L8 18z"/>
<path style="fill:#59693f; stroke:none;" d="M50 20L51 21L50 20M8 21L9 22L8 21M47 24L54 22L47 24z"/>
<path style="fill:#636263; stroke:none;" d="M7 22L0 32L16 32L16 31L8 27L7 22z"/>
<path style="fill:#59693f; stroke:none;" d="M9 22L11 25L9 22M32 24L35 22L32 24M28 24L28 25L32 25L28 24M43 24L41 28L37 26L35 31L54 32L54 31L41 30L41 29L48 26L48 25L43 24M26 25L29 27L26 25M10 26L11 27L10 26z"/>
<path style="fill:#807f80; stroke:none;" d="M44 29L49 28L44 29M10 27L11 28L10 27z"/>
<path style="fill:#59693f; stroke:none;" d="M12 27C14.2519 31.2912 17.3658 31.888 22 32L22 31L12 27M29 27L30 28L29 27M30 28L35 29L30 28z"/>
<path style="fill:#6e824c; stroke:none;" d="M44 27L45 28L44 27z"/>
<path style="fill:#636263; stroke:none;" d="M18 29L18 30L30 32C30 36.2109 31.2794 43.8198 28 43L29 47L25 51L28 49L30 61L20 58L23 57L23 56C10.9101 62.7595 34.2534 64 38 64L32 61L32 32L38 32L18 29z"/>
<path style="fill:#6e824c; stroke:none;" d="M41 30L44 28L41 30M12 29L13 30L12 29M0 32L0 38C4.4009 37.402 6.48916 36.2755 8 32L0 32z"/>
<path style="fill:#9d999d; stroke:none;" d="M8 32L8 33L28 33L8 32z"/>
<path style="fill:#807f80; stroke:none;" d="M0 38L0 61L7 61L7 58L4 57L4 56L14 56L15 59L26 44L20 57L23 56L23 57L20 58L30 61L28 49L25 51L29 47L28 43L30 32L10.0895 33.3171L0 38M32 32L32 61L36 61L36 60C34.5271 54.6439 44.4621 46.841 48 43L42 54L45 60L49 59C49.6982 63.1893 57.2754 60.2015 60 59L64 61L64 38L63 38L59 50L51.7863 34.6034L32 32z"/>
<path style="fill:#9d999d; stroke:none;" d="M36 32L36 33L50 33L36 32z"/>
<path style="fill:#6e824c; stroke:none;" d="M50 32L60 47L64 32L50 32z"/>
<path style="fill:#9d999d; stroke:none;" d="M32 35L32 50L33 50L32 35z"/>
<path style="fill:#59693f; stroke:none;" d="M1 39L4 37L1 39M62 38L63 39L62 38M61 39L60 42L61 39z"/>
<path style="fill:#6e824c; stroke:none;" d="M47 43L36 57L39 58L38 61L37 61L34 58L44 62L46 61L47 43M25 44C20.7575 48.3446 16.6298 52.6112 17 59L20 58L19 55L21 56L25 44z"/>
<path style="fill:#59693f; stroke:none;" d="M59.3333 44.6667L59.6667 45.3333L59.3333 44.6667M58 46L58 50L59 50L58 46M20 54L21 55L20 54M19.3333 55.6667L19.6667 56.3333L19.3333 55.6667M37.3333 55.6667L37.6667 56.3333L37.3333 55.6667z"/>
<path style="fill:#636263; stroke:none;" d="M4 56L4 57L6 60L11 58L11 57L4 56z"/>
<path style="fill:#6e824c; stroke:none;" d="M13 56L10 60L11 62L17 62L16 59L12 60L13 56z"/>
<path style="fill:#59693f; stroke:none;" d="M35 56L37 61L38 61L39 58L35 56M13 57L12 60C14.1579 59.0224 14.5007 58.8117 13 57M18 57L16 58L17 62L11 62L8 59L2 63L22 64L22 63L18 61L18 57M10 58L11 59L10 58z"/>
<path style="fill:#636263; stroke:none;" d="M44.6667 58.3333L45.3333 58.6667L44.6667 58.3333z"/>
<path style="fill:#59693f; stroke:none;" d="M34 59L35 60L34 59M39 59L40 60L39 59z"/>
<path style="fill:#636263; stroke:none;" d="M46 59C50.3317 65.6068 57.4185 63.1293 64 63L60 59C56.9762 59.504 47.7956 63.8177 49 59L46 59z"/>
<path style="fill:#6e824c; stroke:none;" d="M7.66667 60.3333L8.33333 60.6667L7.66667 60.3333M18 60L19 61L18 60z"/>
<path style="fill:#59693f; stroke:none;" d="M37 63L52 64L52 63L44 62L37 63z"/>
<path style="fill:#636263; stroke:none;" d="M3 64L4 62C0.991436 60.3103 -1.08863 63.1403 3 64z"/>
<path style="fill:#6e824c; stroke:none;" d="M19 61L20 62L19 61z"/>
<path style="fill:#59693f; stroke:none;" d="M36 61L37 62L36 61M59 63L59 64L64 64L59 63z"/>
</svg>
