<?xml version="1.0" standalone="yes"?>
<svg xmlns="http://www.w3.org/2000/svg" width="64" height="64">
<path style="fill:#1c0e12; stroke:none;" d="M0 0L0 2L16 2L16 16L0 16L0 34L8 34L8 48L0 48L0 50L16 50L16 64L18 64L18 50L48 50L48 64L50 64L50 50L64 50L64 48L58 48L58 34L64 34L64 32L34 32L34 18L64 18L64 16L50 16L50 2L64 2L64 0L0 0z"/>
<path style="fill:#3f1f25; stroke:none;" d="M0 2L0 3L5 3L0 2z"/>
<path style="fill:#45252b; stroke:none;" d="M5 2L6 3L5 2z"/>
<path style="fill:#3f1f25; stroke:none;" d="M6.66667 2.33333L7.33333 2.66667L6.66667 2.33333z"/>
<path style="fill:#45252b; stroke:none;" d="M8 2L8 3L12 3L8 2z"/>
<path style="fill:#3f1f25; stroke:none;" d="M12.6667 2.33333L13.3333 2.66667L12.6667 2.33333z"/>
<path style="fill:#34191e; stroke:none;" d="M10 5L0 3C0.05095 7.27456 0.106081 10.1922 5 10L8 13L12 12L12 11L10 11L10 10L14 11L16 2L10 5z"/>
<path style="fill:#45252b; stroke:none;" d="M18 5L19 5L30 3C26.7433 1.12363 18.9467 0.582069 18 5z"/>
<path style="fill:#3f1f25; stroke:none;" d="M30.6667 2.33333L31.3333 2.66667L30.6667 2.33333z"/>
<path style="fill:#45252b; stroke:none;" d="M32 2L33 3L32 2z"/>
<path style="fill:#3f1f25; stroke:none;" d="M33 2L34 3L33 2z"/>
<path style="fill:#45252b; stroke:none;" d="M34 2L34 3L37 3L34 2z"/>
<path style="fill:#3f1f25; stroke:none;" d="M37 2L38 3L37 2z"/>
<path style="fill:#45252b; stroke:none;" d="M38 2L38 3L43 3L38 2z"/>
<path style="fill:#3f1f25; stroke:none;" d="M43 2L44 3L43 2z"/>
<path style="fill:#45252b; stroke:none;" d="M44 2L45 3L44 2z"/>
<path style="fill:#3f1f25; stroke:none;" d="M45.6667 2.33333L46.3333 2.66667L45.6667 2.33333z"/>
<path style="fill:#34191e; stroke:none;" d="M47 2L20.0139 4.6034L18 16C22.4212 16 29.4381 8.24744 28 14L34 13L34 12L31 11L31 10L41 13C41 10.2046 42.4803 10.7348 45 11L45 10L42 9L42 8L46 9L47 2z"/>
<path style="fill:#45252b; stroke:none;" d="M50 4L56 3L50 4z"/>
<path style="fill:#3f1f25; stroke:none;" d="M56 2L57 3L56 2z"/>
<path style="fill:#45252b; stroke:none;" d="M57 2L58 3L57 2z"/>
<path style="fill:#3f1f25; stroke:none;" d="M58.6667 2.33333L59.3333 2.66667L58.6667 2.33333z"/>
<path style="fill:#34191e; stroke:none;" d="M56 5L55 5L52 3L50 16L56 15L56 12L60 14C60 11.5642 60.7861 12.385 63 13L60 9L64 9L64 2L56 5z"/>
<path style="fill:#3f1f25; stroke:none;" d="M61.6667 2.33333L62.3333 2.66667L61.6667 2.33333z"/>
<path style="fill:#291519; stroke:none;" d="M4 3L5 4L4 3M10 5L13 3L10 5z"/>
<path style="fill:#3f1f25; stroke:none;" d="M19 3L20 4L19 3z"/>
<path style="fill:#291519; stroke:none;" d="M34 3L35 4L34 3M45.6667 3.33333L46.3333 3.66667L45.6667 3.33333z"/>
<path style="fill:#3f1f25; stroke:none;" d="M51 3L52 4L51 3z"/>
<path style="fill:#291519; stroke:none;" d="M54 3L55 5L56 5L57 3L54 3M3 4L4 5L3 4M24 4L22 5L22 6L24 4M33 4L34 5L33 4M44 4L45 5L44 4z"/>
<path style="fill:#3f1f25; stroke:none;" d="M50.3333 4.66667L50.6667 5.33333L50.3333 4.66667M18 5L19 6L18 5z"/>
<path style="fill:#45252b; stroke:none;" d="M18.3333 6.66667L18.6667 7.33333L18.3333 6.66667z"/>
<path style="fill:#291519; stroke:none;" d="M32 6L34 8L32 6M47 6L46 9L42 8L42 9L45 10L45 11C42.421 10.3664 41 10.1812 41 13L31 10L31 11L34 12L34 13L28 14C27.4036 9.97609 23.1537 13.5189 21 15L21 16L48 16L47 6z"/>
<path style="fill:#45252b; stroke:none;" d="M50.3333 6.66667L50.6667 7.33333L50.3333 6.66667z"/>
<path style="fill:#291519; stroke:none;" d="M5 7L10 10L10 9L5 7M15 7L14 11L10 10L10 11L12 11L12 12L8 13L5 10L0 10L0 16L16 16L15 7M45 7L46 8L45 7M12 8L14 10L12 8z"/>
<path style="fill:#3f1f25; stroke:none;" d="M18.3333 8.66667L18.6667 9.33333L18.3333 8.66667M50.3333 8.66667L50.6667 9.33333L50.3333 8.66667z"/>
<path style="fill:#291519; stroke:none;" d="M51 8L52 9L51 8M58.6667 8.33333L59.3333 8.66667L58.6667 8.33333M60 9L63 13C60.832 12.284 59.969 11.7062 60 14L56 12L54 15L54 16L64 16L63 8L60 9M2 9L3 10L2 9M34 9L35 10L34 9M21 12L24 11L21 12M38.6667 10.3333L39.3333 10.6667L38.6667 10.3333z"/>
<path style="fill:#45252b; stroke:none;" d="M50 10L51 11L50 10z"/>
<path style="fill:#34191e; stroke:none;" d="M63 10L64 11L63 10z"/>
<path style="fill:#3f1f25; stroke:none;" d="M18 11L18 15L19 15L18 11M50 11L50 15L51 15L50 11z"/>
<path style="fill:#291519; stroke:none;" d="M23 12L24 13L23 12M53 14L54 15L53 14z"/>
<path style="fill:#45252b; stroke:none;" d="M2 18L2 24L3 24L3 19L15 19L2 18z"/>
<path style="fill:#3f1f25; stroke:none;" d="M15 18L16 19L15 18z"/>
<path style="fill:#45252b; stroke:none;" d="M16.6667 18.3333L17.3333 18.6667L16.6667 18.3333z"/>
<path style="fill:#3f1f25; stroke:none;" d="M18 18L18 19L22 19L18 18z"/>
<path style="fill:#45252b; stroke:none;" d="M22 18L23 19L22 18z"/>
<path style="fill:#3f1f25; stroke:none;" d="M23 18L23 19L31 19L23 18z"/>
<path style="fill:#34191e; stroke:none;" d="M31 18L4.02778 20.6034L2 32L13 30L12 28L19 30L19 29L16 28L15 26L15 25L20 26L27 25L30 28L28 25L32 25L31 18z"/>
<path style="fill:#3f1f25; stroke:none;" d="M34 18L36 20L34 18z"/>
<path style="fill:#45252b; stroke:none;" d="M35 18L35 19L40 19L35 18z"/>
<path style="fill:#3f1f25; stroke:none;" d="M40.6667 18.3333L41.3333 18.6667L40.6667 18.3333z"/>
<path style="fill:#45252b; stroke:none;" d="M42.6667 18.3333L43.3333 18.6667L42.6667 18.3333z"/>
<path style="fill:#3f1f25; stroke:none;" d="M44 18L45 19L44 18z"/>
<path style="fill:#45252b; stroke:none;" d="M45 18L46 19L45 18z"/>
<path style="fill:#3f1f25; stroke:none;" d="M46.6667 18.3333L47.3333 18.6667L46.6667 18.3333z"/>
<path style="fill:#34191e; stroke:none;" d="M34 32L39 29C41.4544 29.8979 43.5679 30.9722 44 28L51 30L51 29L48 28L48 27L54 27L57 24L57 28C62.7195 26.6873 63.9342 23.5551 64 18C57.7966 19.4769 40.1996 15.3367 36.0278 20.6034C34.0161 23.143 34.7538 28.834 34 32z"/>
<path style="fill:#291519; stroke:none;" d="M50 18L51 19L50 18z"/>
<path style="fill:#3f1f25; stroke:none;" d="M52 18L52 19L55 19L52 18z"/>
<path style="fill:#45252b; stroke:none;" d="M55.6667 18.3333L56.3333 18.6667L55.6667 18.3333z"/>
<path style="fill:#3f1f25; stroke:none;" d="M57 18L58 19L57 18z"/>
<path style="fill:#45252b; stroke:none;" d="M58 18L59 19L58 18z"/>
<path style="fill:#3f1f25; stroke:none;" d="M59 18L59 19L63 19L59 18M3 19L4 20L3 19z"/>
<path style="fill:#45252b; stroke:none;" d="M34 19L34 22L35 22L34 19z"/>
<path style="fill:#291519; stroke:none;" d="M49 19L50 20L49 19M6 20L5 22L6 20M40 20L38 21L38 22L40 20M31 21L32 22L31 21M20 22L20 23L23 24L20 22M26 23L26 24L30 23L26 23z"/>
<path style="fill:#3f1f25; stroke:none;" d="M34 22L34 25L35 25L34 22z"/>
<path style="fill:#291519; stroke:none;" d="M46 24L49 23L46 24M60 24L63 22L60 24M11 24L14 26L14 23L11 24M54 23L55 24L54 23z"/>
<path style="fill:#3f1f25; stroke:none;" d="M2 24L3 25L2 24z"/>
<path style="fill:#291519; stroke:none;" d="M15 25L15 26L16 28L19 29L19 30L12 28L13 30L6 31L6 32L32 32L31 24L28 25L30 28L27 25L20 26L15 25M24 24L25 25L24 24M54 27L48 27L48 28L51 29L51 30L44 28C44 31.4993 41.433 29.6256 39 29L38 31L38 32L64 32L64 25L57 28L57 24L54 27z"/>
<path style="fill:#45252b; stroke:none;" d="M2 25L3 26L2 25z"/>
<path style="fill:#291519; stroke:none;" d="M8 25L8 26L11 27L8 25z"/>
<path style="fill:#45252b; stroke:none;" d="M34.3333 25.6667L34.6667 26.3333L34.3333 25.6667z"/>
<path style="fill:#291519; stroke:none;" d="M49 25L50 26L49 25z"/>
<path style="fill:#3f1f25; stroke:none;" d="M2 26L2 31L3 31L2 26z"/>
<path style="fill:#291519; stroke:none;" d="M43 26L42 28L43 26z"/>
<path style="fill:#3f1f25; stroke:none;" d="M34 27L34 31L35 31L34 27z"/>
<path style="fill:#291519; stroke:none;" d="M35.6667 31.3333L36.3333 31.6667L35.6667 31.3333z"/>
<path style="fill:#3f1f25; stroke:none;" d="M0 34L0 35L8 35L0 34z"/>
<path style="fill:#45252b; stroke:none;" d="M10 36L18 35L10 36z"/>
<path style="fill:#3f1f25; stroke:none;" d="M18 34L19 35L18 34z"/>
<path style="fill:#45252b; stroke:none;" d="M19 34L20 35L19 34z"/>
<path style="fill:#3f1f25; stroke:none;" d="M20 34L20 35L23 35L20 34z"/>
<path style="fill:#34191e; stroke:none;" d="M23 34L15 37L11 36L10 48L22 46L22 45L16 42L16 41C20.9005 40.9746 25.4482 40.0524 23 34z"/>
<path style="fill:#45252b; stroke:none;" d="M26 34L26 38L27 38L30 35L26 34z"/>
<path style="fill:#3f1f25; stroke:none;" d="M30 34L31 35L30 34z"/>
<path style="fill:#45252b; stroke:none;" d="M31 34L31 35L34 35L31 34z"/>
<path style="fill:#3f1f25; stroke:none;" d="M34 34L34 35L39 35L34 34z"/>
<path style="fill:#34191e; stroke:none;" d="M39 34C34.0253 35.5319 18.924 39.3751 28 48L27 46L28 46L30 47L31 47L30 45L31 45L36 45L36 44L32 43L32 42L38 43L38 42L35 41L35 40L39 41L39 34z"/>
<path style="fill:#45252b; stroke:none;" d="M42 34L42 36L44 34L42 34z"/>
<path style="fill:#3f1f25; stroke:none;" d="M42 42L43 42L46 35C42.1527 34.9089 42.1026 38.838 42 42z"/>
<path style="fill:#34191e; stroke:none;" d="M42 48L52 43L46 43L49 42L48 40L55 40L56 34C44.423 36.0547 43.6117 35.8215 42 48z"/>
<path style="fill:#3f1f25; stroke:none;" d="M48 34L48 35L54 35L48 34M58 34L58 38L59 38L59 35L64 35L58 34z"/>
<path style="fill:#34191e; stroke:none;" d="M0 35C0.000512179 39.6398 -0.889299 44.0346 4 46L4 42L8 35L0 35z"/>
<path style="fill:#291519; stroke:none;" d="M4 35L5 36L4 35z"/>
<path style="fill:#3f1f25; stroke:none;" d="M11 35L12 36L11 35z"/>
<path style="fill:#291519; stroke:none;" d="M12 35L15 37L12 35M18 35L19 36L18 35z"/>
<path style="fill:#3f1f25; stroke:none;" d="M27 35L28 36L27 35z"/>
<path style="fill:#291519; stroke:none;" d="M31.6667 35.3333L32.3333 35.6667L31.6667 35.3333z"/>
<path style="fill:#34191e; stroke:none;" d="M59 35L58 48L62 47L61 45C64.5976 42.6677 63.9969 38.9871 64 35L59 35z"/>
<path style="fill:#3f1f25; stroke:none;" d="M10 36L10 40L11 40L10 36z"/>
<path style="fill:#291519; stroke:none;" d="M19 36L20 37L19 36M30 36L31 37L30 36M45 36L46 37L45 36M62 36L61 38L62 36z"/>
<path style="fill:#3f1f25; stroke:none;" d="M26 38L26 45L27 45L26 38z"/>
<path style="fill:#291519; stroke:none;" d="M54 38L55 40L54 40L48 40L49 42L46 43L52 43L46 47L46 48L51 46L56 48L54 38M22 39L23 40L22 39M46.6667 39.3333L47.3333 39.6667L46.6667 39.3333M7 40L4 42L4 46L0 45C0.854378 48.9871 4.48947 48 8 48L7 40M16 41L16 42L19 42L22 45L22 46L14 47L14 48L24 48L24 40L16 41M35 40L35 41L38 42L38 43L32 42L32 43L36 44L36 45L30 45L31 47L30 47L28 46L27 46L27 47L40 48L40 40L35 40M3 41L4 42L3 41z"/>
<path style="fill:#3f1f25; stroke:none;" d="M10 41L11 42L10 41M58 42L58 46L59 46L58 42z"/>
<path style="fill:#291519; stroke:none;" d="M15 43L18 45L15 43z"/>
<path style="fill:#3f1f25; stroke:none;" d="M10 44L10 47L11 47L10 44z"/>
<path style="fill:#291519; stroke:none;" d="M32 44L33 45L32 44z"/>
<path style="fill:#3f1f25; stroke:none;" d="M42 44L42 47L43 47L42 44z"/>
<path style="fill:#291519; stroke:none;" d="M63 44L60 47L60 48L64 48L63 44z"/>
<path style="fill:#34191e; stroke:none;" d="M53 45L55 47L53 45M51 46L54 48L51 46z"/>
<path style="fill:#3f1f25; stroke:none;" d="M0 50L0 51L3 51L0 50z"/>
<path style="fill:#45252b; stroke:none;" d="M3 50L3 51L8 51L3 50z"/>
<path style="fill:#3f1f25; stroke:none;" d="M8.66667 50.3333L9.33333 50.6667L8.66667 50.3333z"/>
<path style="fill:#45252b; stroke:none;" d="M10 50L10 51L13 51L10 50z"/>
<path style="fill:#3f1f25; stroke:none;" d="M13 50L14 51L13 50z"/>
<path style="fill:#34191e; stroke:none;" d="M6 53L5 53L0 51L0 56L4 58L0 58L1 62L12 62L12 61L8 60L8 59L14 60L12 57L16 59L16 50L6 53z"/>
<path style="fill:#45252b; stroke:none;" d="M18 50L18 52L20 50L18 50z"/>
<path style="fill:#3f1f25; stroke:none;" d="M18 53L22 51L18 53z"/>
<path style="fill:#45252b; stroke:none;" d="M22 50L22 51L32 51L22 50z"/>
<path style="fill:#3f1f25; stroke:none;" d="M32 50L32 51L36 51L32 50z"/>
<path style="fill:#45252b; stroke:none;" d="M36 50L36 51L40 51L36 50z"/>
<path style="fill:#3f1f25; stroke:none;" d="M40 50L40 51L43 51L40 50z"/>
<path style="fill:#45252b; stroke:none;" d="M43 50L44 51L43 50z"/>
<path style="fill:#3f1f25; stroke:none;" d="M44.6667 50.3333L45.3333 50.6667L44.6667 50.3333z"/>
<path style="fill:#45252b; stroke:none;" d="M46 50L47 51L46 50z"/>
<path style="fill:#3f1f25; stroke:none;" d="M47 50L48 51L47 50M50 50L52 52L50 50z"/>
<path style="fill:#45252b; stroke:none;" d="M51 50L51 51L56 51L51 50z"/>
<path style="fill:#3f1f25; stroke:none;" d="M56 50L56 51L61 51L56 50z"/>
<path style="fill:#34191e; stroke:none;" d="M50 64L59 63L56 61L61 60C61 57.5642 61.7861 58.385 64 59L64 58L61 56C67.9553 50.9902 56.1382 49.2162 52.6034 52.0278C50.0114 54.0894 50.9381 60.8472 50 64z"/>
<path style="fill:#3f1f25; stroke:none;" d="M62.6667 50.3333L63.3333 50.6667L62.6667 50.3333z"/>
<path style="fill:#291519; stroke:none;" d="M4 51L5 53L6 53L7 51L4 51z"/>
<path style="fill:#34191e; stroke:none;" d="M18 64L28 62L28 61L24 60L24 59L36 62L34 59L40 61L40 62L43 59L46 60L48 52C43.7314 50.2095 23.0624 48.6499 20.0131 52.6142C18.0596 55.154 18.5837 60.856 18 64z"/>
<path style="fill:#291519; stroke:none;" d="M24 51L25 52L24 51M38 51L39 52L38 51z"/>
<path style="fill:#45252b; stroke:none;" d="M50 51L50 58L51 58L50 51z"/>
<path style="fill:#291519; stroke:none;" d="M12 52L14 54L12 52M22.6667 52.3333L23.3333 52.6667L22.6667 52.3333M37 52L38 53L37 52M46.6667 52.3333L47.3333 52.6667L46.6667 52.3333M52 53L52 54L56 53L52 53z"/>
<path style="fill:#45252b; stroke:none;" d="M18 53L18 56L19 56L18 53z"/>
<path style="fill:#291519; stroke:none;" d="M2 54L3 55L2 54M24 54L23 56L24 54M29 56L32 55L29 56M47 54L46 60L43 59L40 62L40 61L42 60L34 59L36 62L24 59L24 60L28 61L28 62L20 63L20 64L48 64L47 54M1 55L0 58L1 59L4 58L1 55M53 55L52 57L53 55M61 56L64 58L63 55L61 56z"/>
<path style="fill:#3f1f25; stroke:none;" d="M18.3333 56.6667L18.6667 57.3333L18.3333 56.6667z"/>
<path style="fill:#291519; stroke:none;" d="M12 57L14 60L8 59L8 60L12 61L12 62L1 62L2 60L1 60L0 64L16 64L12 57M59 57L60 58L59 57M4 58L8 61L4 58z"/>
<path style="fill:#45252b; stroke:none;" d="M18 58L19 59L18 58z"/>
<path style="fill:#291519; stroke:none;" d="M28 58L29 59L28 58M41 58L42 59L41 58z"/>
<path style="fill:#3f1f25; stroke:none;" d="M50 58L50 63L51 63L50 58z"/>
<path style="fill:#291519; stroke:none;" d="M57 58L58 59L57 58M61 60L56 61L58 64L64 64C63.9502 61.6396 60.9704 55.683 61 60z"/>
<path style="fill:#3f1f25; stroke:none;" d="M18 59L18 62L19 62L18 59z"/>
<path style="fill:#291519; stroke:none;" d="M51 59L52 60L51 59M31 60L32 61L31 60z"/>
</svg>
