<?xml version="1.0" standalone="yes"?>
<svg xmlns="http://www.w3.org/2000/svg" width="64" height="64">
<path style="fill:#2f0101; stroke:none;" d="M0 0L1 1L0 0z"/>
<path style="fill:#380405; stroke:none;" d="M0 2L3 2L2 0L0 2z"/>
<path style="fill:#2f0101; stroke:none;" d="M2 0L2 1L16 2L16 7L17 7L18 2L38 1C28.4404 -3.01138 12.387 0 2 0z"/>
<path style="fill:#380405; stroke:none;" d="M36 1L36 2L42 2L36 1z"/>
<path style="fill:#2f0101; stroke:none;" d="M39 0L39 1C45.5334 2.09119 47.9165 2.95325 48 10L49 10L50 2L64 2L64 0L39 0z"/>
<path style="fill:#380405; stroke:none;" d="M4 1L5 2L4 1M32 1L33 2L32 1M44.6667 1.33333L45.3333 1.66667L44.6667 1.33333z"/>
<path style="fill:#6f1519; stroke:none;" d="M0 2L0 3L14 3L0 2z"/>
<path style="fill:#570f11; stroke:none;" d="M14 2L10 6L9 3L0 3L0 8L5 8L8 5C8.71423 10.1656 17.2397 7.1214 14 2z"/>
<path style="fill:#450507; stroke:none;" d="M15 2L16 3L15 2z"/>
<path style="fill:#6f1519; stroke:none;" d="M18 2L18 10L19 10C19.8441 -1.0651 38.7829 3 47 3L18 2z"/>
<path style="fill:#570f11; stroke:none;" d="M47 2L48 3L47 2z"/>
<path style="fill:#6f1519; stroke:none;" d="M50 2L50 15L51 15C51.0009 7.29938 51.332 3.10246 60 3L50 2z"/>
<path style="fill:#570f11; stroke:none;" d="M53 6L53 3C51.5827 4.64951 50.3308 6.56263 53 7L51 13L58 11L58 10L55 10L54 7L60 7L60 6L58 6L58 5L64 7L64 2L53 6z"/>
<path style="fill:#6f1519; stroke:none;" d="M61.6667 2.33333L62.3333 2.66667L61.6667 2.33333z"/>
<path style="fill:#450507; stroke:none;" d="M2 3L2 4L7 4L7 3L2 3z"/>
<path style="fill:#380405; stroke:none;" d="M4 3L5 4L4 3z"/>
<path style="fill:#450507; stroke:none;" d="M9.66667 3.33333L10.3333 3.66667L9.66667 3.33333z"/>
<path style="fill:#380405; stroke:none;" d="M10 5L13 3L10 5z"/>
<path style="fill:#450507; stroke:none;" d="M12 5L15 3L12 5z"/>
<path style="fill:#570f11; stroke:none;" d="M18 11L29 11L32 8L32 7L30 7L30 6L40 5L40 6L37 7L40 10L48 5L48 4L43 5C42.3046 0.827316 34.7786 3.96887 32 5L26 3C25.6238 5.89536 23.7768 6.23938 21 6L25 4C19.6931 1.98381 19.0371 6.8643 18 11z"/>
<path style="fill:#450507; stroke:none;" d="M25 3L23 4L23 5C25.2495 5.28821 26.3975 5.19682 25 3M33 3L32 5L33 3z"/>
<path style="fill:#380405; stroke:none;" d="M34 3L35 4L34 3z"/>
<path style="fill:#450507; stroke:none;" d="M35 3L36 4L35 3M43 4L43 5L46 5L43 4z"/>
<path style="fill:#380405; stroke:none;" d="M45.6667 3.33333L46.3333 3.66667L45.6667 3.33333z"/>
<path style="fill:#450507; stroke:none;" d="M47 3L48 4L47 3M53 3L53 6L54 6L55 6L53 3z"/>
<path style="fill:#380405; stroke:none;" d="M54 3L55 5L56 5L57 3L54 3z"/>
<path style="fill:#450507; stroke:none;" d="M57 3L58 4L57 3z"/>
<path style="fill:#380405; stroke:none;" d="M3 4L4 5L3 4z"/>
<path style="fill:#450507; stroke:none;" d="M15 4L13 9L8 5L4 6L6 7L6 8L0 8L0 10L5 10L8 13L12 12L12 11L10 11L10 10L14 11L15 4z"/>
<path style="fill:#380405; stroke:none;" d="M24 4L25 5L24 4M33 4L34 5L33 4M44 4L45 5L44 4z"/>
<path style="fill:#450507; stroke:none;" d="M56 4L57 5L56 4M2 5L3 6L2 5M10 5L11 6L10 5M21 5L23 7L21 5z"/>
<path style="fill:#380405; stroke:none;" d="M22.6667 5.33333L23.3333 5.66667L22.6667 5.33333z"/>
<path style="fill:#450507; stroke:none;" d="M29 5L30 6L29 5M35 5L36 6L35 5M30 6L30 7L32 7L32 8L29 11L19 11L22 13L22 14L19 13L19 16C22.9042 15.3493 29.4202 8.31929 28 14L34 13L34 12L31 11L31 10L41 13C41 10.2046 42.4803 10.7348 45 11L45 10L42 9L42 8L46 9L48 5L39 8L40 11L39 11L38 11L37 7L40 6L30 6M58 5L58 6L60 6L60 7L54 7L58 10L58 11L51 13L51 16L56 15L56 12L60 14C60 11.5642 60.7861 12.385 63 13L60 9L64 9L58 5z"/>
<path style="fill:#380405; stroke:none;" d="M17 6L14 11L10 10L10 11L12 11L12 12L8 13L5 10L0 10L0 16L14 16L14 17L11 17L11 18L28 16L28 17L25 17L25 18L44 16L44 17L40 17L40 18L51 17L49 20L52 18L52 17L48 15L48 11L50 12L50 8L49 8L49 10L48 10L48 6L47 6L46 9L42 8L42 9L45 10L45 11C42.421 10.3664 41 10.1812 41 13L31 10L31 11L34 12L34 13L28 14C27.3145 9.37546 22.3121 14.16 22 17L16 15L17 6M32 6L33 7L32 6M5 7L6 8L5 7M33 7L34 8L33 7M45 7L46 8L45 7z"/>
<path style="fill:#450507; stroke:none;" d="M52 7L51 10L52 7z"/>
<path style="fill:#380405; stroke:none;" d="M6 8L6 9L10 10L10 9L6 8M12 8L13 9L12 8z"/>
<path style="fill:#2f0101; stroke:none;" d="M16 8L17 9L16 8z"/>
<path style="fill:#450507; stroke:none;" d="M20.6667 8.33333L21.3333 8.66667L20.6667 8.33333M25 8L26 9L25 8z"/>
<path style="fill:#380405; stroke:none;" d="M51 8L52 9L51 8M58.6667 8.33333L59.3333 8.66667L58.6667 8.33333M60 9L63 13C60.832 12.284 59.969 11.7062 60 14L56 12L54 15L54 16L56 18L64 16L63 8L60 9M2 9L3 10L2 9M13 9L14 10L13 9z"/>
<path style="fill:#2f0101; stroke:none;" d="M17 9L16 15L17 15L17 9z"/>
<path style="fill:#380405; stroke:none;" d="M34 9L35 10L34 9M21 12L24 11L21 12M38.6667 10.3333L39.3333 10.6667L38.6667 10.3333z"/>
<path style="fill:#450507; stroke:none;" d="M63 10L64 11L63 10z"/>
<path style="fill:#6f1519; stroke:none;" d="M18 11L18 15L19 15L18 11z"/>
<path style="fill:#2f0101; stroke:none;" d="M48 11L48 15L49 15L48 11z"/>
<path style="fill:#450507; stroke:none;" d="M53 11L54 12L53 11z"/>
<path style="fill:#570f11; stroke:none;" d="M19 12L22 14L19 12z"/>
<path style="fill:#380405; stroke:none;" d="M23 12L24 13L23 12z"/>
<path style="fill:#570f11; stroke:none;" d="M19 14L20 15L19 14M51 14L52 15L51 14z"/>
<path style="fill:#380405; stroke:none;" d="M53 14L54 15L53 14z"/>
<path style="fill:#570f11; stroke:none;" d="M18 15L19 16L18 15M50 15L51 16L50 15z"/>
<path style="fill:#2f0101; stroke:none;" d="M0 16L0 21L1 21L14 17L0 16M20.6667 16.3333L21.3333 16.6667L20.6667 16.3333M22 17L22 18L28 17L22 17M28 17L28 18L32 18L32 29L33 29L34 18L44 17L28 17M51 16L51 17L57 17L51 16M58 16L59 17L58 16M59 17L59 18L64 18L64 16L59 17z"/>
<path style="fill:#380405; stroke:none;" d="M8.66667 17.3333L9.33333 17.6667L8.66667 17.3333z"/>
<path style="fill:#2f0101; stroke:none;" d="M44 17L45 18L44 17M49.6667 17.3333L50.3333 17.6667L49.6667 17.3333z"/>
<path style="fill:#6f1519; stroke:none;" d="M2 18L2 31L3 31C3.00183 14.389 18.0023 19 31 19L2 18z"/>
<path style="fill:#570f11; stroke:none;" d="M31 18L29 21L31 18z"/>
<path style="fill:#6f1519; stroke:none;" d="M34 18L34 31L35 31C35.0012 20.3897 37.7283 19 48 19L34 18z"/>
<path style="fill:#570f11; stroke:none;" d="M48 18L49 19L48 18z"/>
<path style="fill:#450507; stroke:none;" d="M49 18L50 19L49 18z"/>
<path style="fill:#570f11; stroke:none;" d="M51 18L44 21L44 20L46 20L46 19L39 19L39 20L43 20L43 21L40 24L35 23L35 27L40 28L40 27L38 26L46 25L46 24L44 23L52 21L52 22L50 22L50 23L61 22L61 21L57 22L57 21L61 20L51 18z"/>
<path style="fill:#6f1519; stroke:none;" d="M52 18L52 19L63 19L52 18z"/>
<path style="fill:#570f11; stroke:none;" d="M63.3333 18.6667L63.6667 19.3333L63.3333 18.6667M3 22L8 20L8 21C2.06257 23.8241 2.59644 28.4265 9 30L9 27L4 27L4 26L6 24C8.93337 24.1542 10.6173 24.0289 11 21L19 22L18 20L26 22L26 21L24 21L24 20L27 20C21.8232 17.8938 6.21388 16.9918 3 22z"/>
<path style="fill:#450507; stroke:none;" d="M8 19L9 20L8 19M21 19L22 20L21 19M24 20L24 21L26 21L26 22L18 20L19 22L11 21L10 26L6 24L4 26L4 27L9 27L9 30L3 28L3 31L3 32L13 30L12 28L19 30L19 29L16 28L15 26L15 25L20 26L27 25L30 28L28 25L32 25L32 19L31 19L29 21L24 20z"/>
<path style="fill:#570f11; stroke:none;" d="M36 19L35 21L35 22C37.1579 21.0224 37.5007 20.8117 36 19z"/>
<path style="fill:#450507; stroke:none;" d="M37 19L35 23L40 24L38 21L43 21L43 20L37 19M44 20L44 21L49 20L44 20M50 19L51 20L50 19M58 19L59 20L58 19M57 21L57 22L61 21L61 22L56 26L57 28C62.0949 26.8307 64.385 24.2195 63 19L57 21z"/>
<path style="fill:#380405; stroke:none;" d="M1 20L1 25L2 25L1 20z"/>
<path style="fill:#450507; stroke:none;" d="M3 23L8 21L3 23z"/>
<path style="fill:#380405; stroke:none;" d="M6 20L7 21L6 20z"/>
<path style="fill:#450507; stroke:none;" d="M13 20L14 21L13 20M35.6667 20.3333L36.3333 20.6667L35.6667 20.3333z"/>
<path style="fill:#380405; stroke:none;" d="M40 20L41 21L40 20M5 21L6 22L5 21z"/>
<path style="fill:#450507; stroke:none;" d="M7 23L10 22L7 23z"/>
<path style="fill:#380405; stroke:none;" d="M31 21L32 22L31 21M38.6667 21.3333L39.3333 21.6667L38.6667 21.3333z"/>
<path style="fill:#450507; stroke:none;" d="M49 23L46 24L46 25L40 27L40 28L35 27L35 28L37 29L35 30L35 31C37.616 31.3834 39 31.7135 39 29C41.4544 29.8979 43.5679 30.9722 44 28L51 30L51 29L48 28L48 27L54 27L56 24L56 23L54 22L50 23L50 22L52 22L49 23z"/>
<path style="fill:#380405; stroke:none;" d="M20 22L20 23L23 24L20 22M26 23L26 24L30 23L26 23M47.6667 22.3333L48.3333 22.6667L47.6667 22.3333M60 24L63 22L60 24M11 24L14 26L14 23L11 24M46 23L47 24L46 23M54 23L55 24L54 23z"/>
<path style="fill:#2f0101; stroke:none;" d="M0 24C0.440275 29.629 1.36857 33.8479 8 33L9 36L24 33L24 32L3.29321 31.1026L0 24z"/>
<path style="fill:#380405; stroke:none;" d="M15 25L15 26L16 28L19 29L19 30L12 28L13 30L6 31L6 32L24 32L25 34L22 39C22 42.4328 18.7396 40.4817 16 41L16 42L19 43L15 43L15 44L21 47L14 47L14 48L22 48L22 49L20 49L20 50L39 48L39 49L36 49L36 50L44 50L40 48L42 40L41 40L41 43L40 43L40 40L35 40L35 43L32 42L31 47L27 46L27 49C25.2198 46.3296 21.688 39.922 26 41L25 32L30 32L30 33L28 33L28 34L51 32L51 33L48 33L48 34L58 36L59 33L62 34L64 32L64 25L57 28L57 24L54 27L48 27L48 28L51 29L51 30L44 28C44 31.4993 41.433 29.6256 39 29C39 31.7825 37.4646 31.318 35 31L35 32L37 32L37 33L33 32L34 26L33 26L33 29L32 29L31 24L28 25L30 28L27 25L20 26L15 25M24 24L25 25L24 24M33 24L34 25L33 24z"/>
<path style="fill:#450507; stroke:none;" d="M35 24L36 25L35 24z"/>
<path style="fill:#380405; stroke:none;" d="M8.66667 25.3333L9.33333 25.6667L8.66667 25.3333M49 25L50 26L49 25M0 26L1 27L0 26M10 26L11 27L10 26M43 26L42 28L43 26M1 27L2 28L1 27z"/>
<path style="fill:#570f11; stroke:none;" d="M35 28L35 30L37 28L35 28M3 29L3 31L5 31L3 29z"/>
<path style="fill:#380405; stroke:none;" d="M0 30L0 34L4 34L4 33L0 30z"/>
<path style="fill:#570f11; stroke:none;" d="M2 31L3 32L2 31z"/>
<path style="fill:#2f0101; stroke:none;" d="M33 31L33 32L37 33L37 32L33 31z"/>
<path style="fill:#570f11; stroke:none;" d="M34 31L35 32L34 31z"/>
<path style="fill:#380405; stroke:none;" d="M4 32L5 33L4 32z"/>
<path style="fill:#2f0101; stroke:none;" d="M25 32L25 33L30 33L25 32M37 33L40 34L40 43L41 43L41 34L51 33L37 33M56 32L57 34L58 34L59 32L56 32M61 32L64 34L61 32z"/>
<path style="fill:#380405; stroke:none;" d="M6 33L6 34C8.90985 37.6553 7.34147 40.1502 3 41L5 44L4 46L0 45L1 50L6 50L6 49L4 49L4 48L14 50L14 49L8 48C8.05985 42.5772 11.548 36.2551 6 33M42 33L41 35L42 33M44.6667 33.3333L45.3333 33.6667L44.6667 33.3333z"/>
<path style="fill:#2f0101; stroke:none;" d="M59 33L60 34L59 33z"/>
<path style="fill:#6f1519; stroke:none;" d="M0 34L0 35L8 35L0 34M10 34L10 40L11 40C12.7608 34.1997 17.7948 35.0006 23 35L10 34z"/>
<path style="fill:#570f11; stroke:none;" d="M23 34L20 36L20 39L23 34z"/>
<path style="fill:#2f0101; stroke:none;" d="M24 34L25 35L24 34z"/>
<path style="fill:#6f1519; stroke:none;" d="M26 34L26 45L27 45C27.0323 35.8511 30.5272 35.0009 39 35L26 34z"/>
<path style="fill:#570f11; stroke:none;" d="M39.3333 34.6667L39.6667 35.3333L39.3333 34.6667z"/>
<path style="fill:#6f1519; stroke:none;" d="M42 34L42 42L43 42L46 35L42 34z"/>
<path style="fill:#570f11; stroke:none;" d="M46 34L44 37L45 35L44 35L43 38L54 36L46 34z"/>
<path style="fill:#6f1519; stroke:none;" d="M48 34L48 35L54 35L48 34z"/>
<path style="fill:#570f11; stroke:none;" d="M54 34L55 35L54 34z"/>
<path style="fill:#450507; stroke:none;" d="M55 34L54 37L43 38L43 39L45 42L43 42L43 45L48 45L48 46L44 47L44 48L52 43L46 43L49 42L48 40L55 40L55 34z"/>
<path style="fill:#6f1519; stroke:none;" d="M58 34L58 38L59 38L59 35L64 35L58 34z"/>
<path style="fill:#570f11; stroke:none;" d="M0 35L0 36L2 37L0 42L3 41L2 39L8 35L5 37L4 37L0 35z"/>
<path style="fill:#450507; stroke:none;" d="M3 35L3 36L6 36L6 35L3 35z"/>
<path style="fill:#380405; stroke:none;" d="M4 35L5 36L4 35M12 35L15 37L12 35z"/>
<path style="fill:#570f11; stroke:none;" d="M14 35L15 36L14 35z"/>
<path style="fill:#450507; stroke:none;" d="M15 35L16 38L11 37L11 38L14 38L12 41L16 40L16 41L11 43L11 44L14 46L11 47L11 48L21 47L15 44L15 43L19 43L16 42L16 41C18.7844 40.8824 22.0196 42.3585 22 39L24 37L20 39L21 36L21 35L17 35L18 37L15 35z"/>
<path style="fill:#570f11; stroke:none;" d="M16 35L16 37L18 37L16 35z"/>
<path style="fill:#380405; stroke:none;" d="M18 35L19 36L18 35z"/>
<path style="fill:#2f0101; stroke:none;" d="M25 35L26 36L25 35z"/>
<path style="fill:#570f11; stroke:none;" d="M28 35L26 46L31 41L28 40L28 39L32 40L32 39L30 36L28 35z"/>
<path style="fill:#450507; stroke:none;" d="M28 37L32 39L32 40L28 39L28 40L31 41L28 42L27 46L31 47L32 42L35 43L35 40L39 41L40 40L37 35L38 37L35 36L28 37z"/>
<path style="fill:#380405; stroke:none;" d="M31.6667 35.3333L32.3333 35.6667L31.6667 35.3333z"/>
<path style="fill:#450507; stroke:none;" d="M33 35L34 36L33 35z"/>
<path style="fill:#570f11; stroke:none;" d="M32 37C34.168 37.716 35.031 38.2938 35 36L38 37L32 37z"/>
<path style="fill:#450507; stroke:none;" d="M44 37L47 36L44 37M49.6667 35.3333L50.3333 35.6667L49.6667 35.3333z"/>
<path style="fill:#2f0101; stroke:none;" d="M56 35L56 45L57 45L56 35z"/>
<path style="fill:#570f11; stroke:none;" d="M59 35C58.3451 38.7054 57.6941 41.6545 61 44L59 41L62 42L63 38L59 39L64 36L59 35z"/>
<path style="fill:#450507; stroke:none;" d="M0 36L0 38L2 36L0 36M6 36L7 37L6 36z"/>
<path style="fill:#570f11; stroke:none;" d="M11 36L12 37L11 36z"/>
<path style="fill:#380405; stroke:none;" d="M19 36L20 37L19 36z"/>
<path style="fill:#450507; stroke:none;" d="M22 36L23 37L22 36z"/>
<path style="fill:#380405; stroke:none;" d="M30 36L31 37L30 36M45 36L46 37L45 36z"/>
<path style="fill:#450507; stroke:none;" d="M51 36L52 37L51 36M59 39L62 37L62 42L59 41L61 44L58 48L62 47L61 45L64 36L59 39z"/>
<path style="fill:#380405; stroke:none;" d="M62 36L63 37L62 36z"/>
<path style="fill:#450507; stroke:none;" d="M7 37L2 39C4.55941 41.3803 7.87463 41.1349 7 37z"/>
<path style="fill:#570f11; stroke:none;" d="M12 37L10 48L14 46L11 44L11 43L16 41L16 40L12 41L14 38L12 37M14.6667 37.3333L15.3333 37.6667L14.6667 37.3333M18 37L19 38L18 37M39 37L40 38L39 37z"/>
<path style="fill:#380405; stroke:none;" d="M57.3333 37.6667L57.6667 38.3333L57.3333 37.6667M61 37L62 38L61 37z"/>
<path style="fill:#2f0101; stroke:none;" d="M8 38L9 39L8 38z"/>
<path style="fill:#380405; stroke:none;" d="M41 38L42 39L41 38M54 38L55 40L54 40L48 40L49 42L46 43L52 43L46 47L46 48L64 50L64 49C60.5086 48.4805 58.4475 47.6904 58 44L54 38z"/>
<path style="fill:#450507; stroke:none;" d="M0 39L1 40L0 39z"/>
<path style="fill:#2f0101; stroke:none;" d="M9 39L8 48L9 48L9 39M25 39L26 40L25 39z"/>
<path style="fill:#570f11; stroke:none;" d="M43 39L43 42L45 42L45 39L43 39z"/>
<path style="fill:#380405; stroke:none;" d="M46.6667 39.3333L47.3333 39.6667L46.6667 39.3333z"/>
<path style="fill:#2f0101; stroke:none;" d="M24 40L25 47L26 47L24 40z"/>
<path style="fill:#570f11; stroke:none;" d="M45 40L46 41L45 40z"/>
<path style="fill:#450507; stroke:none;" d="M1 41L0 45L4 46L5 44L1 41z"/>
<path style="fill:#6f1519; stroke:none;" d="M10 41L11 42L10 41z"/>
<path style="fill:#450507; stroke:none;" d="M36.6667 42.3333L37.3333 42.6667L36.6667 42.3333z"/>
<path style="fill:#570f11; stroke:none;" d="M42 42L42 44L44 44L42 42z"/>
<path style="fill:#6f1519; stroke:none;" d="M58 42L58 46L59 46L58 42z"/>
<path style="fill:#570f11; stroke:none;" d="M12 43L13 44L12 43z"/>
<path style="fill:#6f1519; stroke:none;" d="M10 44L10 47L11 47L10 44z"/>
<path style="fill:#450507; stroke:none;" d="M32 45L32 46L36 45L32 45z"/>
<path style="fill:#2f0101; stroke:none;" d="M41 44L40 48L41 48L41 44z"/>
<path style="fill:#6f1519; stroke:none;" d="M42 44L42 47L43 47L42 44z"/>
<path style="fill:#570f11; stroke:none;" d="M42 48L48 46C45.0877 44.413 43.7635 45.3477 42 48z"/>
<path style="fill:#380405; stroke:none;" d="M63 44L60 47L60 48L64 48L63 44z"/>
<path style="fill:#450507; stroke:none;" d="M21 45L22 46L21 45M51 47L55 46L51 47z"/>
<path style="fill:#570f11; stroke:none;" d="M59 45L60 46L59 45z"/>
<path style="fill:#450507; stroke:none;" d="M26 46L26 48L28 48L26 46z"/>
<path style="fill:#380405; stroke:none;" d="M53 46L54 47L53 46z"/>
<path style="fill:#2f0101; stroke:none;" d="M57 46L58 47L57 46z"/>
<path style="fill:#570f11; stroke:none;" d="M58 46L59 47L58 46z"/>
<path style="fill:#2f0101; stroke:none;" d="M56 47L57 48L56 47M0 48L0 50L2 48L0 48M4 48L4 49L8 50L8 49L4 48M11 48L11 49C15.9944 50.8363 15.9828 54.1253 16 59L17 59L17 50L22 49L11 48M26 48L27 49L26 48M27 49L27 50L31 50L27 49M31 48L32 49L31 48M34 49L34 50L39 49L34 49M43 48L43 49L49 50L48 61L49 61L50 50L54 50L43 48M54 48L55 49L54 48M59 48L59 49L64 49L59 48M2 49L3 50L2 49z"/>
<path style="fill:#380405; stroke:none;" d="M18 49L17 51L18 49M46 49L46 50L49 51L46 49z"/>
<path style="fill:#6f1519; stroke:none;" d="M0 50L0 51L14 51L0 50z"/>
<path style="fill:#570f11; stroke:none;" d="M13 52L16 50L13 52z"/>
<path style="fill:#6f1519; stroke:none;" d="M18 50L18 62L19 62C19.0122 46.1635 35.9324 51 48 51L18 50M50 50L50 63L51 63C51.0009 54.5273 51.8511 51.0323 61 51L50 50z"/>
<path style="fill:#570f11; stroke:none;" d="M61 50L54 51L54 52L57 52L57 55L51 58L54 60L50 64L57 64L57 63L54 62L56 60L56 59L54 57L60 55L60 54L57 53L64 54L64 53L61 50z"/>
<path style="fill:#6f1519; stroke:none;" d="M62.6667 50.3333L63.3333 50.6667L62.6667 50.3333z"/>
<path style="fill:#570f11; stroke:none;" d="M0 51L0 55L4 53L0 51z"/>
<path style="fill:#450507; stroke:none;" d="M2 51L2 52L4 53L0 56L4 58L0 58L1 62L12 62L12 61L8 60L8 59L14 60L12 57L16 59L16 52L9 51L9 52L11 53L8 57L3 55L8 51L6 53L5 53L2 51z"/>
<path style="fill:#380405; stroke:none;" d="M4 51L5 53L6 53L7 51L4 51z"/>
<path style="fill:#570f11; stroke:none;" d="M3 55L8 57L11 53L3 55M20 51L18 64L23 61L20 59L47 55C46.058 52.7122 45.4374 52.3417 48 52L48 51L36 53C35.2917 48.7502 26.7318 51.5952 24 53L26 55L21 56L23 54L22 51L20 51z"/>
<path style="fill:#450507; stroke:none;" d="M21 52L21 56L26 54L24 55L24 54L27 52L21 52z"/>
<path style="fill:#380405; stroke:none;" d="M24 51L25 52L24 51z"/>
<path style="fill:#450507; stroke:none;" d="M36 52L36 53L40 52L36 52z"/>
<path style="fill:#380405; stroke:none;" d="M38 51L39 52L38 51z"/>
<path style="fill:#450507; stroke:none;" d="M44 51L45 52L44 51z"/>
<path style="fill:#570f11; stroke:none;" d="M52 51L51 53L52 51z"/>
<path style="fill:#450507; stroke:none;" d="M53 51L51 54L54 52L54 56L51 56L51 57L57 55L57 52L53 51M61 51L64 53L61 51z"/>
<path style="fill:#570f11; stroke:none;" d="M63 51L64 52L63 51z"/>
<path style="fill:#380405; stroke:none;" d="M12 52L14 54L12 52M22.6667 52.3333L23.3333 52.6667L22.6667 52.3333M37 52L38 53L37 52z"/>
<path style="fill:#450507; stroke:none;" d="M45 52L48 54L48 53L45 52z"/>
<path style="fill:#380405; stroke:none;" d="M46.6667 52.3333L47.3333 52.6667L46.6667 52.3333M52 54L55 54L54 52L52 54M55 52L56 53L55 52z"/>
<path style="fill:#450507; stroke:none;" d="M57 53L60 54L60 55L54 57L56 59L56 60L54 62L59 63L56 61L61 60C61 57.5642 61.7861 58.385 64 59L64 58L61 56L64 55L57 53z"/>
<path style="fill:#570f11; stroke:none;" d="M15 53L16 54L15 53z"/>
<path style="fill:#450507; stroke:none;" d="M29.6667 53.3333L30.3333 53.6667L29.6667 53.3333M32 53L30 55L30 56L34 53L32 53M37 54L37 55L42 53L37 54z"/>
<path style="fill:#380405; stroke:none;" d="M49 53L50 54L49 53M2 54L3 55L2 54z"/>
<path style="fill:#570f11; stroke:none;" d="M8 55L8 58L14 56L8 55z"/>
<path style="fill:#380405; stroke:none;" d="M24 54L25 55L24 54M30.6667 54.3333L31.3333 54.6667L30.6667 54.3333z"/>
<path style="fill:#450507; stroke:none;" d="M34 54L35 55L34 54M43 54L42 56L43 54z"/>
<path style="fill:#380405; stroke:none;" d="M47 54L44 61L42 58L40 60L39 60C37.0036 58.6464 35.3846 58.3728 35 61L29 61L29 58L24 59L24 60L28 61L28 62L20 63L20 64L50 64L50 58L49 58L49 61L48 61L49 54L47 54z"/>
<path style="fill:#570f11; stroke:none;" d="M51 56L54 55L51 56z"/>
<path style="fill:#380405; stroke:none;" d="M1 55L0 58L1 59L4 58L1 55M23 55L24 56L23 55z"/>
<path style="fill:#450507; stroke:none;" d="M28 55L29 56L28 55z"/>
<path style="fill:#380405; stroke:none;" d="M29 55L30 56L29 55z"/>
<path style="fill:#450507; stroke:none;" d="M28 59L28 60L35 61C35 58.061 37.0572 58.5609 39 60L40 60L42 58L44 61L47 55L28 59z"/>
<path style="fill:#380405; stroke:none;" d="M53 55L54 56L53 55M61 56L64 58L63 55L61 56M17 56L16 59L12 57L14 60L8 59L8 60L12 61L12 62L1 62L2 60L1 60L0 64L16 64L16 60L18 61L17 56M52 56L53 57L52 56z"/>
<path style="fill:#450507; stroke:none;" d="M20 59L28 62L28 61L24 60L24 59L29 58L20 59z"/>
<path style="fill:#570f11; stroke:none;" d="M32 59L35 57L32 59z"/>
<path style="fill:#380405; stroke:none;" d="M59 57L60 58L59 57M4 58L8 61L4 58z"/>
<path style="fill:#450507; stroke:none;" d="M19 58L20 59L19 58M51 58L51 61L54 60L51 58z"/>
<path style="fill:#380405; stroke:none;" d="M57 58L58 59L57 58M61 60L56 61L58 64L64 64C63.9502 61.6396 60.9704 55.683 61 60z"/>
<path style="fill:#450507; stroke:none;" d="M45 59L46 60L45 59z"/>
<path style="fill:#380405; stroke:none;" d="M51 59L52 60L51 59z"/>
<path style="fill:#2f0101; stroke:none;" d="M16 60L18 64L16 60z"/>
<path style="fill:#450507; stroke:none;" d="M22 61L23 62L22 61M31 61L32 62L31 61M35 61L36 62L35 61M40.6667 61.3333L41.3333 61.6667L40.6667 61.3333z"/>
<path style="fill:#380405; stroke:none;" d="M17 62L18 63L17 62z"/>
<path style="fill:#450507; stroke:none;" d="M20.6667 62.3333L21.3333 62.6667L20.6667 62.3333z"/>
<path style="fill:#2f0101; stroke:none;" d="M49 62L50 63L49 62z"/>
<path style="fill:#450507; stroke:none;" d="M51 63L51 64L55 64L51 63M19 63L20 64L19 63z"/>
<path style="fill:#2f0101; stroke:none;" d="M48 63L49 64L48 63z"/>
</svg>
