<?xml version="1.0" standalone="yes"?>
<svg xmlns="http://www.w3.org/2000/svg" width="64" height="64">
<path style="fill:#838383; stroke:none;" d="M0 0L2 5L0 5L4 14L4 15L1 14L3 24L0 22L0 28L1 28L4 20L7 21L7 16L8 19L18 18L20 21L20 22L9 23L9 24L18 24L18 25L13 26L13 27L22 24L22 25L19 26L19 27L23 28L27 27L27 26L24 25L24 24L32 26L32 27L41 25L41 26L38 27L38 28L47 28L47 27L43 26L48 22L48 21L31 20L31 19C35.5482 19.8043 46.9184 21.3071 48 16L58 13L58 14L55 14L57 17L50 17L50 21L55 22L51 26L61 26L62 24L58 20L58 19L62 14L58 15C62.5241 10.6817 62 5.89584 62 0C42.9367 1.50444 18.7259 4.45826 0 0z"/>
<path style="fill:#9d999d; stroke:none;" d="M1 0L1 1L58 1L40 0L1 0z"/>
<path style="fill:#5d5c5d; stroke:none;" d="M62 0L62 30L0 30L0 32L30 32L30 62L0 62L0 64L64 64L64 62L32 62L32 32L64 32L64 0L62 0z"/>
<path style="fill:#9d999d; stroke:none;" d="M0 2L0 5L1 5L0 2z"/>
<path style="fill:#797779; stroke:none;" d="M2 4L5 2L2 4M1 4L2 5L1 4M30 4L30 5L31 7L36 6L36 5L30 4M50 4L50 5L55 6L55 7L51 8L51 9L60 6L60 5L50 4M44 5L44 6L51 7L51 6L44 5z"/>
<path style="fill:#9d999d; stroke:none;" d="M0 6L0 22L1 22L0 6z"/>
<path style="fill:#797779; stroke:none;" d="M19 9L23 11L23 10L21 9L28 7L19 9M3 7L3 8L12 12L3 7M39 7L39 8L44 9L39 7M32 8L32 9L37 9L37 8L32 8M45 8L34 14L34 15L43 18L43 17L37 15L37 14L48 9L45 8M57 9L57 10L61 9L57 9M30 9L18 12L18 13L25 15L25 12L30 9M50 10L53 13L53 10L50 10M61 11L58 15C60.6377 14.4996 61.6025 13.7483 61 11M3.66667 12.3333L4.33333 12.6667L3.66667 12.3333M7 14L14 18L14 17L10 16L10 15L16 13L7 14M48 12L51 14L48 12M1 13L4 15L1 13M48 16C46.8762 20.9808 35.3883 19.4644 31 19L31 20L48 21L48 22L43 26L50 24L48 25L48 26C50.5493 27.0256 57.3168 31.075 58 27L61 28L60 24C60 27.929 53.7075 26.9262 51 26L55 22L50 21L50 17L57 17C56.058 14.7122 55.4374 14.3417 58 14L48 16M44 14L44 15L48 15L48 14L44 14M5 15L6 16L5 15M17 17L22 16L17 17M23 16L23 19L23 20L31 16L23 16M6 16L7 21L4 20L0 29L7 22L8 22L8 27L11 26C11.7485 31.4135 25.551 28.6168 30 29L29 27L30 27C35.8706 29.4772 42.8862 29.8071 49 28L46 26C46 29.3588 40.7966 28 38 28L38 27L41 26L41 25L32 27L32 26L34 25L24 24L24 25L27 26L27 27L23 28L19 27L19 26L22 25L22 24L13 27L13 26L18 25L18 24L11 26L9 23L20 22L20 21L18 18L8 19L6 16M58 16L59 17L58 16M51 18L57 22L54 17L51 18M30 18L31 19L30 18M46 18L47 19L46 18M57 18L58 19L57 18M61 18L58 19L58 20L62 22L61 18M1 20L2 24L3 24L1 20M25 22L25 23L29 24L30 22L25 22M40 21L38 22L38 23L40 21z"/>
<path style="fill:#6b6d6b; stroke:none;" d="M7 22L0 29L0 30L47 30C51.2879 30 60.9154 32.0615 62 27L58 27C58 31.4004 50.6748 26.5631 48 26L50 24L44 25L44 26L49 28L29 27L30 29L29 29C25.4703 27.8234 9.64436 31.4226 11 26L8 27L7 22z"/>
<path style="fill:#797779; stroke:none;" d="M17 22L18 23L17 22M22 23L23 24L22 23z"/>
<path style="fill:#6b6d6b; stroke:none;" d="M50 23L51 24L50 23z"/>
<path style="fill:#797779; stroke:none;" d="M58 23L53 25L53 26L58 23M41 24L42 25L41 24z"/>
<path style="fill:#6b6d6b; stroke:none;" d="M11 25L12 26L11 25M34 27L35 28L34 27z"/>
<path style="fill:#9d999d; stroke:none;" d="M0 32L0 33L28 33L0 32z"/>
<path style="fill:#838383; stroke:none;" d="M0 33C0.361903 38.6213 -2.23805 46.7921 5 48L5 49L0 49C0.333793 54.1094 0.116753 57.2602 5 60L1 56L7 55L7 54L3 54L3 53C6.16222 52.473 9.67828 53.2869 9 56C11.9477 56.3122 15.5082 57.4945 16 54L23 58L29 55L29 54L23 55L26 53L26 52L20 51L20 50L24 51L27 47L21 43L21 42L27 42L26 44L29 41L24 41L24 40L30 40L30 32L0 33M32 32L35 39L33 44L39 42L33 45L32 60L42 60L42 59L36 58L36 57L42 54L46 54L52 58L52 59L50 59L50 60L62 59L60 56L64 58L64 51L58 53L58 52L64 47L59 46L59 45L64 46L64 33L32 32z"/>
<path style="fill:#9d999d; stroke:none;" d="M36 32L36 33L64 33L36 32z"/>
<path style="fill:#797779; stroke:none;" d="M0 34L1 35L0 34M55 34L55 35L59 36L59 35L55 34M1 35L1 36L8 38L8 37C6.03993 36.3466 5.446 36 8 36L1 35z"/>
<path style="fill:#9d999d; stroke:none;" d="M32 35L32 50L33 50L32 35z"/>
<path style="fill:#797779; stroke:none;" d="M63 35L64 36L63 35M35 36L35 37L39 37L39 36L35 36M59 37L59 38L63 37L59 37M46 38L46 39L52 39L52 40L49 40L49 41L51 42L35 39L35 40L46 44L46 45L42 46L42 47L59 50L59 49L47 45L55 39L46 38M28 38L29 39L28 38M33.6667 38.3333L34.3333 38.6667L33.6667 38.3333M15 39L15 40L17 41L13 43L13 44L24 40L24 39L15 39M24 40L24 41L29 41L26 44L27 42L26 42L21 42L21 43L29 47C29.8242 42.3018 29.5891 38.9357 24 40M33 40L34 41L33 40z"/>
<path style="fill:#838383; stroke:none;" d="M52 40L53 41L52 40z"/>
<path style="fill:#797779; stroke:none;" d="M56 40L62 44L62 43L56 40M34 41L34 43L36 43L34 41M2 42L2 43L9 46L9 45L6 44L8 43L8 42L2 42M33 44L33 45L39 42L33 44z"/>
<path style="fill:#6b6d6b; stroke:none;" d="M28 43L29 44L28 43z"/>
<path style="fill:#797779; stroke:none;" d="M20 44C20 47.0902 17.6226 46.2761 15 46L15 47C18.9264 49.183 21.0462 49.0987 25 47L20 44z"/>
<path style="fill:#6b6d6b; stroke:none;" d="M29 44L27 46L25 51L28 49L29 52L30 52L29 44z"/>
<path style="fill:#797779; stroke:none;" d="M52 46L55 44L52 46M57.6667 44.3333L58.3333 44.6667L57.6667 44.3333M59 45L59 46L64 47L64 46L59 45z"/>
<path style="fill:#838383; stroke:none;" d="M19 47L19 48L23 47L19 47z"/>
<path style="fill:#797779; stroke:none;" d="M34.3333 46.6667L34.6667 47.3333L34.3333 46.6667M0 47L1 50L5 49L5 48L0 47M24 51L20 50L20 51L26 52L26 53L23 55L29 54L29 55L23 58L24 56L21 57L22 55L21 55L16 54C16 57.5873 11.8192 56.0742 9 56C8.56018 52.6796 6.02535 52.4782 3 53L3 54L7 54L6 57L10 58L9 60L19 61L17 58L21 57C21.5299 60.5673 26.7746 60.7724 30 61L28 49L25 51L27 47L24 51M34 49L38 53L38 54L34 55L34 56L40 56L42 51L36 52L40 49L34 49M5.66667 49.3333L6.33333 49.6667L5.66667 49.3333M9 50L9 51L18 52L9 50M0 50L1 51L0 50M45 51L45 52L53 54L45 51M53 50L53 51L56 52L53 50M58 52L58 53L64 51L58 52M10 53L11 54L10 53M12 55L15 56L16 54L12 55M46 53L46 54L49 55L46 53M57 53L58 54L57 53M42 54L36 57L36 58L42 59L42 60C37.9421 59.3272 35.2019 57.9631 32 61L49 59C49.6982 63.1893 57.2754 60.2015 60 59L64 61L60 56L62 59L50 60L50 59L52 59L52 58L46 54L42 54M1 56L5 60L0 57L0 61L8 61L8 60L7 58L5 55L1 56z"/>
<path style="fill:#6b6d6b; stroke:none;" d="M4 56L4 57L7 58L8 60L8 61L0 61L0 62L30 62L30 61L21 57L17 58L19 61L9 60L10 58L4 56M21.6667 56.3333L22.3333 56.6667L21.6667 56.3333M10 57L11 58L10 57M16 57L17 58L16 57z"/>
<path style="fill:#797779; stroke:none;" d="M52.6667 57.3333L53.3333 57.6667L52.6667 57.3333z"/>
<path style="fill:#6b6d6b; stroke:none;" d="M44.6667 58.3333L45.3333 58.6667L44.6667 58.3333M32 61L32 62L64 62L64 61L60 59C56.9762 59.504 47.7956 63.8177 49 59L32 61z"/>
</svg>
